<?xml version="1.0" encoding="UTF-8"?>
<!DOCTYPE svg PUBLIC "-//W3C//DTD SVG 1.1//EN" "http://www.w3.org/Graphics/SVG/1.1/DTD/svg11.dtd">
<svg xmlns="http://www.w3.org/2000/svg" version="1.1" width="500px" height="500px" style="shape-rendering:geometricPrecision; text-rendering:geometricPrecision; image-rendering:optimizeQuality; fill-rule:evenodd; clip-rule:evenodd" xmlns:xlink="http://www.w3.org/1999/xlink">
<g><path style="opacity:0.004" fill="#fefffe" d="M 118.5,2.5 C 119.833,3.16667 119.833,3.16667 118.5,2.5 Z"/></g>
<g><path style="opacity:0.004" fill="#fefffe" d="M 237.5,5.5 C 238.833,6.16667 238.833,6.16667 237.5,5.5 Z"/></g>
<g><path style="opacity:0.004" fill="#fefffe" d="M 257.5,8.5 C 258.833,9.16667 258.833,9.16667 257.5,8.5 Z"/></g>
<g><path style="opacity:0.004" fill="#fefffe" d="M 254.5,12.5 C 255.833,13.1667 255.833,13.1667 254.5,12.5 Z"/></g>
<g><path style="opacity:0.004" fill="#fefffe" d="M 331.5,12.5 C 332.833,13.1667 332.833,13.1667 331.5,12.5 Z"/></g>
<g><path style="opacity:0.004" fill="#fefffe" d="M 283.5,13.5 C 284.833,14.1667 284.833,14.1667 283.5,13.5 Z"/></g>
<g><path style="opacity:0.004" fill="#fefffe" d="M 419.5,13.5 C 420.833,14.1667 420.833,14.1667 419.5,13.5 Z"/></g>
<g><path style="opacity:0.004" fill="#fefffe" d="M 181.5,19.5 C 182.833,20.1667 182.833,20.1667 181.5,19.5 Z"/></g>
<g><path style="opacity:0.004" fill="#fefffe" d="M 9.5,26.5 C 10.8333,27.1667 10.8333,27.1667 9.5,26.5 Z"/></g>
<g><path style="opacity:0.004" fill="#fefffe" d="M 90.5,26.5 C 91.8333,27.1667 91.8333,27.1667 90.5,26.5 Z"/></g>
<g><path style="opacity:0.004" fill="#fefffe" d="M 140.5,38.5 C 141.833,39.1667 141.833,39.1667 140.5,38.5 Z"/></g>
<g><path style="opacity:0.004" fill="#fefffe" d="M 47.5,49.5 C 48.8333,50.1667 48.8333,50.1667 47.5,49.5 Z"/></g>
<g><path style="opacity:0.004" fill="#fefffe" d="M 181.5,53.5 C 182.833,54.1667 182.833,54.1667 181.5,53.5 Z"/></g>
<g><path style="opacity:0.004" fill="#fefffe" d="M 112.5,61.5 C 113.833,62.1667 113.833,62.1667 112.5,61.5 Z"/></g>
<g><path style="opacity:0.004" fill="#fefffe" d="M 465.5,77.5 C 466.833,78.1667 466.833,78.1667 465.5,77.5 Z"/></g>
<g><path style="opacity:0.986" fill="#343535" d="M 289.5,75.5 C 298.356,76.7735 306.689,79.4402 314.5,83.5C 312.559,83.8693 310.725,84.536 309,85.5C 306.966,84.2566 306.133,82.7566 306.5,81C 302.442,80.6596 298.442,79.9929 294.5,79C 293.478,76.6837 291.978,76.1837 290,77.5C 289.536,76.9056 289.369,76.2389 289.5,75.5 Z"/></g>
<g><path style="opacity:0.004" fill="#fefffe" d="M 499.5,78.5 C 499.5,78.8333 499.5,79.1667 499.5,79.5C 498.83,79.0187 498.83,78.6853 499.5,78.5 Z"/></g>
<g><path style="opacity:0.004" fill="#fefffe" d="M 55.5,83.5 C 56.8333,84.1667 56.8333,84.1667 55.5,83.5 Z"/></g>
<g><path style="opacity:0.647" fill="#818482" d="M 326.5,88.5 C 327.71,88.9321 328.71,89.5987 329.5,90.5C 327.821,90.7148 326.821,90.0481 326.5,88.5 Z"/></g>
<g><path style="opacity:0.569" fill="#919693" d="M 340.5,96.5 C 341.71,96.9321 342.71,97.5987 343.5,98.5C 341.821,98.7148 340.821,98.0481 340.5,96.5 Z"/></g>
<g><path style="opacity:0.004" fill="#fefffe" d="M 55.5,112.5 C 56.8333,113.167 56.8333,113.167 55.5,112.5 Z"/></g>
<g><path style="opacity:0.541" fill="#828484" d="M 136.5,112.5 C 132.833,116.833 128.833,120.833 124.5,124.5C 127.5,119.5 131.5,115.5 136.5,112.5 Z"/></g>
<g><path style="opacity:0.275" fill="#9c9d9d" d="M 376.5,127.5 C 377.906,127.973 378.573,128.973 378.5,130.5C 377.094,130.027 376.427,129.027 376.5,127.5 Z"/></g>
<g><path style="opacity:1" fill="#09110f" d="M 289.5,75.5 C 289.369,76.2389 289.536,76.9056 290,77.5C 291.978,76.1837 293.478,76.6837 294.5,79C 298.442,79.9929 302.442,80.6596 306.5,81C 306.133,82.7566 306.966,84.2566 309,85.5C 310.725,84.536 312.559,83.8693 314.5,83.5C 318.734,84.6172 322.734,86.2839 326.5,88.5C 326.821,90.0481 327.821,90.7148 329.5,90.5C 333.3,92.2336 336.966,94.2336 340.5,96.5C 340.821,98.0481 341.821,98.7148 343.5,98.5C 356.033,106.363 367.033,116.03 376.5,127.5C 376.427,129.027 377.094,130.027 378.5,130.5C 381.848,133.851 384.848,137.518 387.5,141.5C 387.427,143.027 388.094,144.027 389.5,144.5C 391.925,147.589 393.925,150.922 395.5,154.5C 395.427,156.027 396.094,157.027 397.5,157.5C 400.397,162.17 402.731,167.17 404.5,172.5C 404.229,174.38 404.896,175.713 406.5,176.5C 408.24,180.719 409.573,185.053 410.5,189.5C 410.229,191.38 410.896,192.713 412.5,193.5C 413.883,198.416 414.883,203.416 415.5,208.5C 414.778,208.082 414.278,207.416 414,206.5C 413.915,208.085 413.749,209.418 413.5,210.5C 408.994,205.334 407.994,206.001 410.5,212.5C 410.154,213.696 409.654,213.696 409,212.5C 408.827,216.719 407.827,220.719 406,224.5C 405.027,222.608 404.36,220.608 404,218.5C 403.7,223.238 404.2,227.904 405.5,232.5C 404.45,234.102 405.117,234.935 407.5,235C 406.935,236.674 406.768,238.507 407,240.5C 400.59,241.478 394.09,241.811 387.5,241.5C 386.556,238.065 385.223,234.732 383.5,231.5C 384.079,228.457 384.746,225.123 385.5,221.5C 384.69,213.699 383.69,206.032 382.5,198.5C 385.73,208.113 387.73,218.113 388.5,228.5C 388.616,231.86 388.949,235.193 389.5,238.5C 393.5,238.5 397.5,238.5 401.5,238.5C 401.655,228.902 400.655,219.569 398.5,210.5C 397.39,202.046 395.057,194.046 391.5,186.5C 384.965,166.953 374.298,149.953 359.5,135.5C 348.483,122.308 335.15,111.975 319.5,104.5C 312.526,100.609 305.193,97.2759 297.5,94.5C 297.611,93.8826 297.944,93.3826 298.5,93C 297.354,92.3551 296.354,91.5217 295.5,90.5C 291.699,89.9581 288.033,88.9581 284.5,87.5C 283.061,88.0634 281.561,88.3968 280,88.5C 268.824,86.6416 257.824,84.6416 247,82.5C 246.667,83.1667 246.333,83.8333 246,84.5C 244.582,82.6368 242.749,82.1368 240.5,83C 241.167,83.3333 241.833,83.6667 242.5,84C 232.687,84.5338 223.02,85.8672 213.5,88C 210.223,90.3155 206.556,91.6488 202.5,92C 201.058,92.3768 200.058,93.2101 199.5,94.5C 190.892,97.1421 182.892,100.809 175.5,105.5C 143.433,123.07 120.266,148.737 106,182.5C 105.51,183.793 105.343,185.127 105.5,186.5C 104.833,186.5 104.5,186.833 104.5,187.5C 95.3119,211.711 92.9785,236.711 97.5,262.5C 98.1667,266.833 98.8333,271.167 99.5,275.5C 100.54,284.416 102.873,292.25 106.5,299C 105.232,301.805 103.232,302.639 100.5,301.5C 101.718,300.197 101.385,299.197 99.5,298.5C 101.256,296.809 101.756,294.809 101,292.5C 100.222,294.584 99.055,296.417 97.5,298C 96.0039,298.507 94.8373,298.007 94,296.5C 91.9782,298.969 92.1449,301.135 94.5,303C 93.6198,304.356 93.2865,305.856 93.5,307.5C 91.7073,305.574 90.7073,303.241 90.5,300.5C 90.7709,298.62 90.1042,297.287 88.5,296.5C 87.4336,294.299 86.767,291.965 86.5,289.5C 86.7406,287.102 86.0739,285.102 84.5,283.5C 76.2393,253.304 76.5726,223.304 85.5,193.5C 86.4473,191.043 87.7806,188.709 89.5,186.5C 89.1373,185.817 88.8039,185.15 88.5,184.5C 88.5,183.833 88.5,183.167 88.5,182.5C 90.8337,180.824 91.8337,178.491 91.5,175.5C 93.4088,169.422 96.0754,163.755 99.5,158.5C 100.906,158.027 101.573,157.027 101.5,155.5C 103.455,151.555 105.788,147.888 108.5,144.5C 110.408,143.514 111.408,141.848 111.5,139.5C 113.024,138.826 114.358,137.826 115.5,136.5C 116.386,135.675 116.719,134.675 116.5,133.5C 118.482,129.854 121.149,126.854 124.5,124.5C 128.833,120.833 132.833,116.833 136.5,112.5C 168.379,84.1699 205.879,69.8366 249,69.5C 258.167,70.3333 267.333,71.1667 276.5,72C 281.046,72.8487 285.379,74.0154 289.5,75.5 Z"/></g>
<g><path style="opacity:1" fill="#42f1be" d="M 319.5,104.5 C 335.15,111.975 348.483,122.308 359.5,135.5C 360.75,137.932 362.25,140.266 364,142.5C 364.495,144.473 364.662,146.473 364.5,148.5C 367.813,146.805 369.813,147.805 370.5,151.5C 369.325,151.281 368.325,151.614 367.5,152.5C 369.076,154.979 370.076,157.646 370.5,160.5C 367.243,160.236 365.243,158.57 364.5,155.5C 361.53,155.254 360.197,153.588 360.5,150.5C 359.5,150.5 358.5,150.5 357.5,150.5C 351.035,144.536 344.702,138.369 338.5,132C 332.597,127.58 326.597,123.414 320.5,119.5C 322.766,119.859 324.599,119.192 326,117.5C 326.903,118.701 328.069,119.535 329.5,120C 328.289,121.113 328.289,122.28 329.5,123.5C 333.433,124.932 337.267,126.599 341,128.5C 341.5,128.333 342,128.167 342.5,128C 341.134,125.003 340.467,121.836 340.5,118.5C 337.028,117.093 333.694,116.093 330.5,115.5C 330.719,114.325 330.386,113.325 329.5,112.5C 326.325,110.799 323.325,108.965 320.5,107C 319.748,106.329 319.414,105.496 319.5,104.5 Z"/></g>
<g><path style="opacity:1" fill="#5ff0a6" d="M 175.5,105.5 C 175.5,106.5 175.5,107.5 175.5,108.5C 170.639,109.509 166.639,112.009 163.5,116C 162.552,116.483 161.552,116.649 160.5,116.5C 161.06,120.221 163.226,122.555 167,123.5C 169.157,122.615 169.99,120.948 169.5,118.5C 177.325,117.392 184.325,114.392 190.5,109.5C 194.105,108.461 197.772,107.795 201.5,107.5C 195.666,109.78 189.999,112.446 184.5,115.5C 173.714,120.947 163.714,127.613 154.5,135.5C 154.714,133.856 154.38,132.356 153.5,131C 154.167,130.667 154.833,130.333 155.5,130C 154.788,128.575 154.621,127.075 155,125.5C 153.27,125.509 151.437,125.842 149.5,126.5C 148.754,127.736 148.421,129.07 148.5,130.5C 150.942,130.354 151.609,131.187 150.5,133C 149.069,133.465 147.903,134.299 147,135.5C 147.263,134.049 147.096,132.716 146.5,131.5C 144.822,133.852 142.489,135.186 139.5,135.5C 139.302,138.785 137.635,140.452 134.5,140.5C 134.561,142.592 135.561,144.092 137.5,145C 131.824,145.673 128.324,148.84 127,154.5C 126.667,154.833 126.333,155.167 126,155.5C 126.077,154.262 125.911,153.262 125.5,152.5C 122.318,156.864 119.651,161.531 117.5,166.5C 119.005,167.842 119.672,169.508 119.5,171.5C 117.409,171.318 115.409,171.652 113.5,172.5C 111.499,176.768 109.499,181.101 107.5,185.5C 106.817,185.863 106.15,186.196 105.5,186.5C 105.343,185.127 105.51,183.793 106,182.5C 120.266,148.737 143.433,123.07 175.5,105.5 Z"/></g>
<g><path style="opacity:1" fill="#4df4ad" d="M 286.5,91.5 C 290.123,92.6557 293.789,93.6557 297.5,94.5C 305.193,97.2759 312.526,100.609 319.5,104.5C 319.414,105.496 319.748,106.329 320.5,107C 323.325,108.965 326.325,110.799 329.5,112.5C 330.386,113.325 330.719,114.325 330.5,115.5C 333.694,116.093 337.028,117.093 340.5,118.5C 340.467,121.836 341.134,125.003 342.5,128C 342,128.167 341.5,128.333 341,128.5C 337.267,126.599 333.433,124.932 329.5,123.5C 328.289,122.28 328.289,121.113 329.5,120C 328.069,119.535 326.903,118.701 326,117.5C 324.599,119.192 322.766,119.859 320.5,119.5C 320.167,119.5 319.833,119.5 319.5,119.5C 313.047,115.607 306.38,112.273 299.5,109.5C 299.586,108.504 299.252,107.671 298.5,107C 296.618,106.802 294.952,106.302 293.5,105.5C 297.08,104.923 300.08,105.923 302.5,108.5C 303.167,107.833 303.833,107.167 304.5,106.5C 308.401,110.186 312.401,110.352 316.5,107C 312.409,105.55 308.742,103.384 305.5,100.5C 302.855,99.8924 300.188,99.3924 297.5,99C 296.663,97.9887 296.33,96.8221 296.5,95.5C 292.55,95.5124 289.216,94.1791 286.5,91.5 Z"/></g>
<g><path style="opacity:1" fill="#61e299" d="M 208.5,92.5 C 205.471,94.3392 202.138,95.6725 198.5,96.5C 199.5,97.3333 200.5,98.1667 201.5,99C 192.561,100.351 183.895,102.518 175.5,105.5C 182.892,100.809 190.892,97.1421 199.5,94.5C 202.402,93.4222 205.402,92.7556 208.5,92.5 Z"/></g>
<g><path style="opacity:1" fill="#57fa9e" d="M 230.5,88.5 C 230.833,88.5 231.167,88.5 231.5,88.5C 241.839,88.3335 252.172,88.5002 262.5,89C 269.681,90.3287 277.014,91.162 284.5,91.5C 285.167,91.5 285.833,91.5 286.5,91.5C 289.216,94.1791 292.55,95.5124 296.5,95.5C 296.33,96.8221 296.663,97.9887 297.5,99C 300.188,99.3924 302.855,99.8924 305.5,100.5C 308.742,103.384 312.409,105.55 316.5,107C 312.401,110.352 308.401,110.186 304.5,106.5C 303.833,107.167 303.167,107.833 302.5,108.5C 300.08,105.923 297.08,104.923 293.5,105.5C 270.751,98.3782 247.418,96.5449 223.5,100C 218.694,101.869 213.694,102.869 208.5,103C 206.276,104.781 203.942,106.281 201.5,107.5C 197.772,107.795 194.105,108.461 190.5,109.5C 184.325,114.392 177.325,117.392 169.5,118.5C 169.99,120.948 169.157,122.615 167,123.5C 163.226,122.555 161.06,120.221 160.5,116.5C 161.552,116.649 162.552,116.483 163.5,116C 166.639,112.009 170.639,109.509 175.5,108.5C 175.5,107.5 175.5,106.5 175.5,105.5C 183.895,102.518 192.561,100.351 201.5,99C 200.5,98.1667 199.5,97.3333 198.5,96.5C 202.138,95.6725 205.471,94.3392 208.5,92.5C 208.833,92.5 209.167,92.5 209.5,92.5C 212.518,92.6646 215.518,92.498 218.5,92C 222.482,90.3295 226.482,89.1629 230.5,88.5 Z"/></g>
<g><path style="opacity:1" fill="#5ad191" d="M 293.5,105.5 C 294.952,106.302 296.618,106.802 298.5,107C 299.252,107.671 299.586,108.504 299.5,109.5C 274.204,100.486 248.204,97.9863 221.5,102C 214.809,103.73 208.142,105.563 201.5,107.5C 203.942,106.281 206.276,104.781 208.5,103C 213.694,102.869 218.694,101.869 223.5,100C 247.418,96.5449 270.751,98.3782 293.5,105.5 Z"/></g>
<g><path style="opacity:1" fill="#051a08" d="M 297.5,94.5 C 293.789,93.6557 290.123,92.6557 286.5,91.5C 285.833,91.5 285.167,91.5 284.5,91.5C 276.107,89.2834 267.44,87.7834 258.5,87C 251.5,86.3333 244.5,86.3333 237.5,87C 235.292,87.1909 233.292,87.6909 231.5,88.5C 231.167,88.5 230.833,88.5 230.5,88.5C 225.141,88.6697 219.808,89.1697 214.5,90C 212.509,90.3736 210.842,91.207 209.5,92.5C 209.167,92.5 208.833,92.5 208.5,92.5C 205.402,92.7556 202.402,93.4222 199.5,94.5C 200.058,93.2101 201.058,92.3768 202.5,92C 206.556,91.6488 210.223,90.3155 213.5,88C 223.02,85.8672 232.687,84.5338 242.5,84C 241.833,83.6667 241.167,83.3333 240.5,83C 242.749,82.1368 244.582,82.6368 246,84.5C 246.333,83.8333 246.667,83.1667 247,82.5C 257.824,84.6416 268.824,86.6416 280,88.5C 281.561,88.3968 283.061,88.0634 284.5,87.5C 288.033,88.9581 291.699,89.9581 295.5,90.5C 296.354,91.5217 297.354,92.3551 298.5,93C 297.944,93.3826 297.611,93.8826 297.5,94.5 Z"/></g>
<g><path style="opacity:1" fill="#64d596" d="M 230.5,88.5 C 226.482,89.1629 222.482,90.3295 218.5,92C 215.518,92.498 212.518,92.6646 209.5,92.5C 210.842,91.207 212.509,90.3736 214.5,90C 219.808,89.1697 225.141,88.6697 230.5,88.5 Z"/></g>
<g><path style="opacity:1" fill="#63dc99" d="M 284.5,91.5 C 277.014,91.162 269.681,90.3287 262.5,89C 252.172,88.5002 241.839,88.3335 231.5,88.5C 233.292,87.6909 235.292,87.1909 237.5,87C 244.5,86.3333 251.5,86.3333 258.5,87C 267.44,87.7834 276.107,89.2834 284.5,91.5 Z"/></g>
<g><path style="opacity:1" fill="#081a10" d="M 184.5,115.5 C 183.37,117.315 182.704,119.315 182.5,121.5C 179.231,121.884 176.397,123.218 174,125.5C 173.586,125.043 173.086,124.709 172.5,124.5C 170.415,125.541 168.748,127.041 167.5,129C 170.147,129.315 170.813,130.482 169.5,132.5C 170.671,134.169 172.004,135.669 173.5,137C 174.355,138.451 174.522,139.951 174,141.5C 179.713,143.506 184.38,146.173 188,149.5C 188.483,150.448 188.649,151.448 188.5,152.5C 190.512,151.986 192.512,151.82 194.5,152C 194.833,152.333 195.167,152.667 195.5,153C 194.262,152.923 193.262,153.089 192.5,153.5C 193.554,155.201 194.554,156.868 195.5,158.5C 194.833,158.5 194.167,158.5 193.5,158.5C 186.974,152.482 179.974,146.982 172.5,142C 169.364,140.959 166.864,141.793 165,144.5C 164.587,147.232 163.92,149.899 163,152.5C 162.5,165.496 162.333,178.496 162.5,191.5C 161.883,191.389 161.383,191.056 161,190.5C 160.832,179.152 160.332,167.819 159.5,156.5C 158.369,157.751 157.036,158.751 155.5,159.5C 154.833,159.167 154.167,158.833 153.5,158.5C 154.885,157.449 155.885,156.116 156.5,154.5C 161.533,153.943 162.533,151.777 159.5,148C 159.862,146.775 160.362,145.609 161,144.5C 161.333,145.167 161.667,145.833 162,146.5C 162.684,145.216 162.517,144.049 161.5,143C 162.624,142.751 163.624,142.251 164.5,141.5C 163.754,140.264 163.421,138.93 163.5,137.5C 164.833,137.5 166.167,137.5 167.5,137.5C 167.5,135.167 167.5,132.833 167.5,130.5C 166.448,130.351 165.448,130.517 164.5,131C 159.958,134.431 155.292,137.597 150.5,140.5C 151.833,138.833 153.167,137.167 154.5,135.5C 163.714,127.613 173.714,120.947 184.5,115.5 Z"/></g>
<g><path style="opacity:1" fill="#050a06" d="M 299.5,109.5 C 306.38,112.273 313.047,115.607 319.5,119.5C 320.957,121.785 322.957,123.618 325.5,125C 324.833,125.333 324.167,125.667 323.5,126C 324.877,128.308 326.877,129.808 329.5,130.5C 330.429,131.689 330.762,133.022 330.5,134.5C 327.188,134.822 327.188,136.155 330.5,138.5C 329.277,139.614 327.944,139.781 326.5,139C 327.474,135.649 326.474,134.982 323.5,137C 324.634,138.016 324.301,138.683 322.5,139C 323.167,139.333 323.833,139.667 324.5,140C 322.622,140.252 320.622,140.919 318.5,142C 318.957,142.414 319.291,142.914 319.5,143.5C 317.389,144.605 316.055,146.271 315.5,148.5C 311.498,149.604 307.831,151.27 304.5,153.5C 304.649,154.552 304.483,155.552 304,156.5C 300.978,155.669 299.478,157.002 299.5,160.5C 297.046,160.321 294.879,160.987 293,162.5C 291.437,161.898 291.604,161.065 293.5,160C 292.128,159.598 290.795,159.098 289.5,158.5C 288.158,160.005 286.492,160.672 284.5,160.5C 284.5,159.5 284.5,158.5 284.5,157.5C 287.718,157.349 288.051,156.516 285.5,155C 286.576,153.274 286.743,151.441 286,149.5C 285.586,149.957 285.086,150.291 284.5,150.5C 282.477,148.827 280.144,148.16 277.5,148.5C 277.167,148.5 276.833,148.5 276.5,148.5C 276.199,145.683 274.866,145.016 272.5,146.5C 267.711,144.843 262.877,143.177 258,141.5C 250.849,142.235 243.682,142.402 236.5,142C 229.856,143.402 223.189,144.736 216.5,146C 213.536,146.84 213.203,147.84 215.5,149C 212.901,149.769 210.401,149.602 208,148.5C 208.112,150.178 208.612,151.845 209.5,153.5C 209.32,154.554 208.987,155.554 208.5,156.5C 205.878,157.952 204.212,160.119 203.5,163C 202.181,163.195 200.847,163.028 199.5,162.5C 197.659,161.598 196.326,160.264 195.5,158.5C 194.554,156.868 193.554,155.201 192.5,153.5C 193.262,153.089 194.262,152.923 195.5,153C 195.167,152.667 194.833,152.333 194.5,152C 192.512,151.82 190.512,151.986 188.5,152.5C 188.649,151.448 188.483,150.448 188,149.5C 184.38,146.173 179.713,143.506 174,141.5C 174.522,139.951 174.355,138.451 173.5,137C 172.004,135.669 170.671,134.169 169.5,132.5C 170.813,130.482 170.147,129.315 167.5,129C 168.748,127.041 170.415,125.541 172.5,124.5C 173.086,124.709 173.586,125.043 174,125.5C 176.397,123.218 179.231,121.884 182.5,121.5C 182.704,119.315 183.37,117.315 184.5,115.5C 189.999,112.446 195.666,109.78 201.5,107.5C 208.142,105.563 214.809,103.73 221.5,102C 248.204,97.9863 274.204,100.486 299.5,109.5 Z"/></g>
<g><path style="opacity:1" fill="#fb9441" d="M 242.5,116.5 C 251.857,116.35 261.191,116.683 270.5,117.5C 271.5,117.5 272.5,117.5 273.5,117.5C 274.429,118.315 275.429,119.148 276.5,120C 280.811,121.271 285.144,122.437 289.5,123.5C 295.837,126.174 302.171,128.841 308.5,131.5C 308.833,131.5 309.167,131.5 309.5,131.5C 309.33,132.822 309.663,133.989 310.5,135C 309.552,135.483 308.552,135.649 307.5,135.5C 307.5,136.5 307.5,137.5 307.5,138.5C 305.11,138.855 302.777,139.522 300.5,140.5C 297.041,138.905 293.374,137.905 289.5,137.5C 285.951,133.39 281.284,131.556 275.5,132C 269.253,129.529 262.919,127.362 256.5,125.5C 255.228,126.046 253.894,126.379 252.5,126.5C 243.196,124.993 233.862,123.659 224.5,122.5C 227.07,121.777 229.403,120.61 231.5,119C 234.2,118.747 236.867,118.747 239.5,119C 240.571,118.148 241.571,117.315 242.5,116.5 Z"/></g>
<g><path style="opacity:1" fill="#f59748" d="M 242.5,116.5 C 241.571,117.315 240.571,118.148 239.5,119C 236.867,118.747 234.2,118.747 231.5,119C 229.403,120.61 227.07,121.777 224.5,122.5C 233.862,123.659 243.196,124.993 252.5,126.5C 253.894,126.379 255.228,126.046 256.5,125.5C 262.919,127.362 269.253,129.529 275.5,132C 281.284,131.556 285.951,133.39 289.5,137.5C 283.428,135.934 277.428,134.101 271.5,132C 259.953,129.644 248.287,128.977 236.5,130C 227.389,131.959 218.389,134.125 209.5,136.5C 208.127,136.657 206.793,136.49 205.5,136C 204.167,135.333 204.167,134.667 205.5,134C 204.376,133.751 203.376,133.251 202.5,132.5C 204.423,131.692 206.423,131.192 208.5,131C 208.167,130.667 207.833,130.333 207.5,130C 204.5,129.667 201.5,129.333 198.5,129C 198.957,128.586 199.291,128.086 199.5,127.5C 207.515,124.043 215.515,120.709 223.5,117.5C 224.5,117.5 225.5,117.5 226.5,117.5C 231.797,116.725 237.13,116.392 242.5,116.5 Z"/></g>
<g><path style="opacity:1" fill="#d48f4d" d="M 273.5,117.5 C 279.228,118.68 284.895,120.18 290.5,122C 296.887,124.583 302.887,127.75 308.5,131.5C 302.171,128.841 295.837,126.174 289.5,123.5C 285.144,122.437 280.811,121.271 276.5,120C 275.429,119.148 274.429,118.315 273.5,117.5 Z"/></g>
<g><path style="opacity:1" fill="#cd8e53" d="M 270.5,117.5 C 261.191,116.683 251.857,116.35 242.5,116.5C 237.13,116.392 231.797,116.725 226.5,117.5C 227.263,116.732 228.263,116.232 229.5,116C 242.494,114.166 255.494,114.166 268.5,116C 269.416,116.278 270.082,116.778 270.5,117.5 Z"/></g>
<g><path style="opacity:1" fill="#eb984e" d="M 223.5,117.5 C 215.515,120.709 207.515,124.043 199.5,127.5C 199.291,128.086 198.957,128.586 198.5,129C 201.5,129.333 204.5,129.667 207.5,130C 207.833,130.333 208.167,130.667 208.5,131C 206.423,131.192 204.423,131.692 202.5,132.5C 203.376,133.251 204.376,133.751 205.5,134C 204.167,134.667 204.167,135.333 205.5,136C 206.793,136.49 208.127,136.657 209.5,136.5C 205.461,138.94 201.294,141.273 197,143.5C 192.095,141.298 187.595,138.465 183.5,135C 195.541,126.155 208.874,120.322 223.5,117.5 Z"/></g>
<g><path style="opacity:0.004" fill="#fefffe" d="M 57.5,135.5 C 58.8333,136.167 58.8333,136.167 57.5,135.5 Z"/></g>
<g><path style="opacity:0.655" fill="#606565" d="M 116.5,133.5 C 116.719,134.675 116.386,135.675 115.5,136.5C 114.358,137.826 113.024,138.826 111.5,139.5C 112.443,136.891 114.11,134.891 116.5,133.5 Z"/></g>
<g><path style="opacity:0.004" fill="#fefffe" d="M 497.5,138.5 C 498.833,139.167 498.833,139.167 497.5,138.5 Z"/></g>
<g><path style="opacity:1" fill="#d88b4b" d="M 309.5,131.5 C 311.138,132.657 312.804,133.824 314.5,135C 310.5,137.667 306.5,140.333 302.5,143C 301.167,143.667 299.833,143.667 298.5,143C 295.404,141.128 292.404,139.295 289.5,137.5C 293.374,137.905 297.041,138.905 300.5,140.5C 302.777,139.522 305.11,138.855 307.5,138.5C 307.5,137.5 307.5,136.5 307.5,135.5C 308.552,135.649 309.552,135.483 310.5,135C 309.663,133.989 309.33,132.822 309.5,131.5 Z"/></g>
<g><path style="opacity:1" fill="#071913" d="M 319.5,119.5 C 319.833,119.5 320.167,119.5 320.5,119.5C 326.597,123.414 332.597,127.58 338.5,132C 344.702,138.369 351.035,144.536 357.5,150.5C 361.229,155.567 364.562,160.901 367.5,166.5C 366.448,166.649 365.448,166.483 364.5,166C 362.021,164.4 359.687,162.567 357.5,160.5C 358.04,159.252 358.707,158.085 359.5,157C 357.513,155.681 356.346,153.848 356,151.5C 354.509,149.996 352.676,149.163 350.5,149C 350.833,148.667 351.167,148.333 351.5,148C 350.328,147.581 349.328,146.915 348.5,146C 345.041,146.734 344.707,145.734 347.5,143C 346.282,141.584 344.949,141.751 343.5,143.5C 341.528,142.98 341.528,141.813 343.5,140C 342,138.5 340.5,137 339,135.5C 337.538,138.515 335.038,140.182 331.5,140.5C 332.5,141.333 333.5,142.167 334.5,143C 333.85,144.609 334.35,146.109 336,147.5C 336.825,158.341 336.659,169.008 335.5,179.5C 335.681,169.133 335.181,158.8 334,148.5C 332.117,140.968 328.283,139.635 322.5,144.5C 320.167,145.833 317.833,147.167 315.5,148.5C 316.055,146.271 317.389,144.605 319.5,143.5C 319.291,142.914 318.957,142.414 318.5,142C 320.622,140.919 322.622,140.252 324.5,140C 323.833,139.667 323.167,139.333 322.5,139C 324.301,138.683 324.634,138.016 323.5,137C 326.474,134.982 327.474,135.649 326.5,139C 327.944,139.781 329.277,139.614 330.5,138.5C 327.188,136.155 327.188,134.822 330.5,134.5C 330.762,133.022 330.429,131.689 329.5,130.5C 326.877,129.808 324.877,128.308 323.5,126C 324.167,125.667 324.833,125.333 325.5,125C 322.957,123.618 320.957,121.785 319.5,119.5 Z"/></g>
<g><path style="opacity:0.965" fill="#636565" d="M 111.5,139.5 C 111.408,141.848 110.408,143.514 108.5,144.5C 108.75,142.326 109.75,140.659 111.5,139.5 Z"/></g>
<g><path style="opacity:0.153" fill="#b8b8b8" d="M 387.5,141.5 C 388.906,141.973 389.573,142.973 389.5,144.5C 388.094,144.027 387.427,143.027 387.5,141.5 Z"/></g>
<g><path style="opacity:1" fill="#5eeca9" d="M 154.5,135.5 C 153.167,137.167 151.833,138.833 150.5,140.5C 143.339,145.987 137.672,152.653 133.5,160.5C 131.5,162.833 129.5,165.167 127.5,167.5C 127.784,165.123 127.784,162.956 127.5,161C 128.793,160.51 130.127,160.343 131.5,160.5C 131.5,158.5 131.5,156.5 131.5,154.5C 133.433,154.271 135.1,153.438 136.5,152C 135.346,151.086 135.513,150.253 137,149.5C 137.333,149.833 137.667,150.167 138,150.5C 138.645,149.354 139.478,148.354 140.5,147.5C 139.859,144.439 140.859,141.773 143.5,139.5C 145.53,139.106 147.863,138.773 150.5,138.5C 150.5,137.5 150.5,136.5 150.5,135.5C 151.833,135.5 153.167,135.5 154.5,135.5 Z"/></g>
<g><path style="opacity:0.118" fill="#b1b1b1" d="M 395.5,154.5 C 396.906,154.973 397.573,155.973 397.5,157.5C 396.094,157.027 395.427,156.027 395.5,154.5 Z"/></g>
<g><path style="opacity:0.094" fill="#b4b5b5" d="M 101.5,155.5 C 101.573,157.027 100.906,158.027 99.5,158.5C 99.427,156.973 100.094,155.973 101.5,155.5 Z"/></g>
<g><path style="opacity:1" fill="#35ebcc" d="M 359.5,135.5 C 374.298,149.953 384.965,166.953 391.5,186.5C 393.262,191.148 392.762,195.481 390,199.5C 390.225,196.175 388.892,193.842 386,192.5C 384.548,189.263 383.381,185.93 382.5,182.5C 378.628,184.975 376.962,183.642 377.5,178.5C 376.5,178.5 375.5,178.5 374.5,178.5C 372.656,174.136 370.323,170.136 367.5,166.5C 364.562,160.901 361.229,155.567 357.5,150.5C 358.5,150.5 359.5,150.5 360.5,150.5C 360.197,153.588 361.53,155.254 364.5,155.5C 365.243,158.57 367.243,160.236 370.5,160.5C 370.076,157.646 369.076,154.979 367.5,152.5C 368.325,151.614 369.325,151.281 370.5,151.5C 369.813,147.805 367.813,146.805 364.5,148.5C 364.662,146.473 364.495,144.473 364,142.5C 362.25,140.266 360.75,137.932 359.5,135.5 Z"/></g>
<g><path style="opacity:0.004" fill="#fefffe" d="M 456.5,168.5 C 457.833,169.167 457.833,169.167 456.5,168.5 Z"/></g>
<g><path style="opacity:1" fill="#55fcb0" d="M 154.5,135.5 C 153.167,135.5 151.833,135.5 150.5,135.5C 150.5,136.5 150.5,137.5 150.5,138.5C 147.863,138.773 145.53,139.106 143.5,139.5C 140.859,141.773 139.859,144.439 140.5,147.5C 139.478,148.354 138.645,149.354 138,150.5C 137.667,150.167 137.333,149.833 137,149.5C 135.513,150.253 135.346,151.086 136.5,152C 135.1,153.438 133.433,154.271 131.5,154.5C 131.5,156.5 131.5,158.5 131.5,160.5C 130.127,160.343 128.793,160.51 127.5,161C 127.784,162.956 127.784,165.123 127.5,167.5C 126.265,167.279 125.265,166.612 124.5,165.5C 124.245,167.343 124.078,169.343 124,171.5C 122.989,172.337 121.822,172.67 120.5,172.5C 120.664,175.187 120.497,177.854 120,180.5C 118.178,182.904 116.844,185.57 116,188.5C 115.333,189.833 114.667,189.833 114,188.5C 113.801,190.402 112.967,191.902 111.5,193C 112.108,194.231 112.441,195.564 112.5,197C 109.368,204.253 106.868,211.753 105,219.5C 101.977,216.553 100.81,212.886 101.5,208.5C 102.688,201.541 103.688,194.541 104.5,187.5C 104.5,186.833 104.833,186.5 105.5,186.5C 106.15,186.196 106.817,185.863 107.5,185.5C 109.499,181.101 111.499,176.768 113.5,172.5C 115.409,171.652 117.409,171.318 119.5,171.5C 119.672,169.508 119.005,167.842 117.5,166.5C 119.651,161.531 122.318,156.864 125.5,152.5C 125.911,153.262 126.077,154.262 126,155.5C 126.333,155.167 126.667,154.833 127,154.5C 128.324,148.84 131.824,145.673 137.5,145C 135.561,144.092 134.561,142.592 134.5,140.5C 137.635,140.452 139.302,138.785 139.5,135.5C 142.489,135.186 144.822,133.852 146.5,131.5C 147.096,132.716 147.263,134.049 147,135.5C 147.903,134.299 149.069,133.465 150.5,133C 151.609,131.187 150.942,130.354 148.5,130.5C 148.421,129.07 148.754,127.736 149.5,126.5C 151.437,125.842 153.27,125.509 155,125.5C 154.621,127.075 154.788,128.575 155.5,130C 154.833,130.333 154.167,130.667 153.5,131C 154.38,132.356 154.714,133.856 154.5,135.5 Z"/></g>
<g><path style="opacity:0.004" fill="#fefffe" d="M 0.5,175.5 C 1.83333,176.167 1.83333,176.167 0.5,175.5 Z"/></g>
<g><path style="opacity:0.125" fill="#b5b7b7" d="M 404.5,172.5 C 405.674,173.514 406.34,174.847 406.5,176.5C 404.896,175.713 404.229,174.38 404.5,172.5 Z"/></g>
<g><path style="opacity:0.004" fill="#fefffe" d="M 431.5,177.5 C 432.833,178.167 432.833,178.167 431.5,177.5 Z"/></g>
<g><path style="opacity:0.816" fill="#727473" d="M 91.5,175.5 C 91.8337,178.491 90.8337,180.824 88.5,182.5C 89.2638,179.982 90.2638,177.649 91.5,175.5 Z"/></g>
<g><path style="opacity:0.992" fill="#5e6160" d="M 88.5,184.5 C 88.8039,185.15 89.1373,185.817 89.5,186.5C 87.7806,188.709 86.4473,191.043 85.5,193.5C 85.5275,190.084 86.5275,187.084 88.5,184.5 Z"/></g>
<g><path style="opacity:0.067" fill="#bfc1c1" d="M 410.5,189.5 C 411.674,190.514 412.34,191.847 412.5,193.5C 410.896,192.713 410.229,191.38 410.5,189.5 Z"/></g>
<g><path style="opacity:0.004" fill="#fefffe" d="M 42.5,210.5 C 43.8333,211.167 43.8333,211.167 42.5,210.5 Z"/></g>
<g><path style="opacity:1" fill="#27e4d8" d="M 374.5,178.5 C 375.5,178.5 376.5,178.5 377.5,178.5C 376.962,183.642 378.628,184.975 382.5,182.5C 383.381,185.93 384.548,189.263 386,192.5C 388.892,193.842 390.225,196.175 390,199.5C 392.762,195.481 393.262,191.148 391.5,186.5C 395.057,194.046 397.39,202.046 398.5,210.5C 399.352,218.821 399.519,227.154 399,235.5C 396.281,236.444 393.448,236.777 390.5,236.5C 390.663,234.143 390.497,231.81 390,229.5C 389.617,228.944 389.117,228.611 388.5,228.5C 387.73,218.113 385.73,208.113 382.5,198.5C 380.735,191.405 378.068,184.738 374.5,178.5 Z"/></g>
<g><path style="opacity:0.004" fill="#fefffe" d="M 73.5,216.5 C 74.8333,217.167 74.8333,217.167 73.5,216.5 Z"/></g>
<g><path style="opacity:0.387" fill="#757776" d="M 417.5,230.5 C 418.011,233.963 419.011,237.296 420.5,240.5C 419.5,240.5 418.5,240.5 417.5,240.5C 417.5,237.167 417.5,233.833 417.5,230.5 Z"/></g>
<g><path style="opacity:1" fill="#4ff3b8" d="M 127.5,167.5 C 112.18,194.702 105.847,224.035 108.5,255.5C 108.43,263.507 109.43,271.341 111.5,279C 111.297,282.389 111.13,285.889 111,289.5C 110.941,286.178 109.774,283.344 107.5,281C 105.893,281.019 104.226,281.185 102.5,281.5C 102.421,274.633 100.755,268.3 97.5,262.5C 92.9785,236.711 95.3119,211.711 104.5,187.5C 103.688,194.541 102.688,201.541 101.5,208.5C 100.81,212.886 101.977,216.553 105,219.5C 106.868,211.753 109.368,204.253 112.5,197C 112.441,195.564 112.108,194.231 111.5,193C 112.967,191.902 113.801,190.402 114,188.5C 114.667,189.833 115.333,189.833 116,188.5C 116.844,185.57 118.178,182.904 120,180.5C 120.497,177.854 120.664,175.187 120.5,172.5C 121.822,172.67 122.989,172.337 124,171.5C 124.078,169.343 124.245,167.343 124.5,165.5C 125.265,166.612 126.265,167.279 127.5,167.5 Z"/></g>
<g><path style="opacity:1" fill="#041910" d="M 133.5,160.5 C 132.642,163.05 131.642,165.55 130.5,168C 131.022,168.561 131.355,169.228 131.5,170C 130.518,171.054 129.351,171.554 128,171.5C 127.383,172.449 127.549,173.282 128.5,174C 123.958,176.494 122.291,180.161 123.5,185C 122.899,186.605 121.899,187.938 120.5,189C 123.332,190.908 122.999,191.741 119.5,191.5C 119.613,194.049 118.946,196.382 117.5,198.5C 118.297,201.41 117.297,203.743 114.5,205.5C 114.987,206.446 115.32,207.446 115.5,208.5C 114.063,215.071 112.396,221.571 110.5,228C 111.097,229.062 111.43,230.228 111.5,231.5C 110.596,233.917 109.929,236.417 109.5,239C 110.295,245.9 111.462,252.733 113,259.5C 113.883,262.1 115.383,264.267 117.5,266C 116.049,265.737 114.716,265.904 113.5,266.5C 114.311,267.216 114.978,268.05 115.5,269C 114.833,269.667 114.167,270.333 113.5,271C 114.348,273.77 114.681,276.603 114.5,279.5C 111.865,271.661 109.865,263.661 108.5,255.5C 105.847,224.035 112.18,194.702 127.5,167.5C 129.5,165.167 131.5,162.833 133.5,160.5 Z"/></g>
<g><path style="opacity:1" fill="#010c0a" d="M 162.5,191.5 C 162.5,192.167 162.5,192.833 162.5,193.5C 162.851,197.529 162.185,201.362 160.5,205C 161.029,206.559 161.696,208.059 162.5,209.5C 160.544,214.03 159.211,218.696 158.5,223.5C 155.104,223.633 154.771,224.633 157.5,226.5C 156.965,228.271 156.131,228.604 155,227.5C 154.488,230.812 153.488,233.812 152,236.5C 150.16,235.167 149.66,235.334 150.5,237C 147.682,237.84 145.516,237.006 144,234.5C 142.287,236.193 140.287,237.526 138,238.5C 137.517,239.448 137.351,240.448 137.5,241.5C 137.298,243.95 137.631,246.283 138.5,248.5C 144.99,250.014 151.656,251.347 158.5,252.5C 152.673,253.413 147.673,255.913 143.5,260C 141.833,260.667 140.167,260.667 138.5,260C 139.167,259.667 139.833,259.333 140.5,259C 139.241,258.018 137.908,257.685 136.5,258C 136.397,261.217 136.73,264.383 137.5,267.5C 138.988,268.939 140.822,269.605 143,269.5C 151.168,268.278 159.335,268.278 167.5,269.5C 174.714,278.728 183.381,286.061 193.5,291.5C 229.708,312.31 266.375,312.81 303.5,293C 305.093,292.051 306.426,290.885 307.5,289.5C 313.141,287.005 318.141,283.505 322.5,279C 325.399,275.335 328.399,271.835 331.5,268.5C 339.023,268.335 346.523,268.668 354,269.5C 355.5,269.333 357,269.167 358.5,269C 359.056,268.617 359.389,268.117 359.5,267.5C 360.451,266.081 360.784,264.415 360.5,262.5C 361.666,259.767 360.666,257.934 357.5,257C 358.328,256.085 359.328,255.419 360.5,255C 359.975,254.308 359.308,253.808 358.5,253.5C 355.995,256.226 352.995,258.226 349.5,259.5C 346.61,258.315 343.776,258.315 341,259.5C 338.929,257.545 338.262,255.212 339,252.5C 339.333,253.5 339.667,254.5 340,255.5C 343.377,251.048 347.377,250.382 352,253.5C 356.631,252.253 356.464,251.42 351.5,251C 354.675,251.053 357.342,250.22 359.5,248.5C 360.779,245.998 360.779,243.498 359.5,241C 352.508,240.5 345.508,240.334 338.5,240.5C 338.81,237.287 338.477,234.287 337.5,231.5C 337.393,223.817 335.393,216.817 331.5,210.5C 333.258,203.62 334.258,196.62 334.5,189.5C 334.833,186.167 335.167,182.833 335.5,179.5C 336.659,169.008 336.825,158.341 336,147.5C 334.35,146.109 333.85,144.609 334.5,143C 333.5,142.167 332.5,141.333 331.5,140.5C 335.038,140.182 337.538,138.515 339,135.5C 340.5,137 342,138.5 343.5,140C 341.528,141.813 341.528,142.98 343.5,143.5C 344.949,141.751 346.282,141.584 347.5,143C 344.707,145.734 345.041,146.734 348.5,146C 349.328,146.915 350.328,147.581 351.5,148C 351.167,148.333 350.833,148.667 350.5,149C 352.676,149.163 354.509,149.996 356,151.5C 356.346,153.848 357.513,155.681 359.5,157C 358.707,158.085 358.04,159.252 357.5,160.5C 359.687,162.567 362.021,164.4 364.5,166C 365.448,166.483 366.448,166.649 367.5,166.5C 370.323,170.136 372.656,174.136 374.5,178.5C 378.068,184.738 380.735,191.405 382.5,198.5C 383.69,206.032 384.69,213.699 385.5,221.5C 384.746,225.123 384.079,228.457 383.5,231.5C 385.223,234.732 386.556,238.065 387.5,241.5C 394.09,241.811 400.59,241.478 407,240.5C 406.768,238.507 406.935,236.674 407.5,235C 405.117,234.935 404.45,234.102 405.5,232.5C 404.2,227.904 403.7,223.238 404,218.5C 404.36,220.608 405.027,222.608 406,224.5C 407.827,220.719 408.827,216.719 409,212.5C 409.654,213.696 410.154,213.696 410.5,212.5C 407.994,206.001 408.994,205.334 413.5,210.5C 413.749,209.418 413.915,208.085 414,206.5C 414.278,207.416 414.778,208.082 415.5,208.5C 417.239,215.588 417.906,222.921 417.5,230.5C 417.5,233.833 417.5,237.167 417.5,240.5C 418.5,240.5 419.5,240.5 420.5,240.5C 421.167,240.5 421.5,240.833 421.5,241.5C 421.918,242.222 422.584,242.722 423.5,243C 421.829,244.844 419.829,245.51 417.5,245C 419.595,244.444 419.762,243.944 418,243.5C 414.552,244.848 411.052,246.015 407.5,247C 409.577,247.192 411.577,247.692 413.5,248.5C 414.506,249.396 414.506,250.062 413.5,250.5C 402.553,250.759 391.386,250.092 380,248.5C 378.342,248.675 377.009,249.342 376,250.5C 375.667,250.167 375.333,249.833 375,249.5C 374.508,250.549 374.674,251.549 375.5,252.5C 375.192,253.308 374.692,253.975 374,254.5C 371,253.167 368,253.167 365,254.5C 364.399,255.965 364.899,256.965 366.5,257.5C 368.523,255.827 370.856,255.16 373.5,255.5C 374.624,260.147 374.624,264.813 373.5,269.5C 384.813,268.604 396.147,268.604 407.5,269.5C 407.192,271.924 407.526,274.257 408.5,276.5C 409.086,276.291 409.586,275.957 410,275.5C 411.284,279.598 411.118,283.765 409.5,288C 410.955,291.554 410.289,294.721 407.5,297.5C 406.158,296.098 405.324,296.431 405,298.5C 403.94,300.95 403.773,303.283 404.5,305.5C 402.129,310.202 398.462,313.536 393.5,315.5C 390.624,315.927 387.791,316.594 385,317.5C 384,317.167 383,316.833 382,316.5C 379.604,320.39 376.104,322.39 371.5,322.5C 369.404,321.74 367.404,321.74 365.5,322.5C 364.252,321.96 363.085,321.293 362,320.5C 361.42,314.153 362.253,307.986 364.5,302C 363.398,297.859 363.398,293.692 364.5,289.5C 364.649,287.68 365.316,286.18 366.5,285C 365.185,283.605 365.519,282.605 367.5,282C 366.207,281.51 364.873,281.343 363.5,281.5C 363.762,280.022 363.429,278.689 362.5,277.5C 360.253,276.626 357.92,276.292 355.5,276.5C 355.5,277.5 355.5,278.5 355.5,279.5C 353.833,279.5 352.167,279.5 350.5,279.5C 350.829,285.537 350.496,291.537 349.5,297.5C 346.184,299.441 345.184,302.107 346.5,305.5C 345.909,307.266 345.076,308.933 344,310.5C 343.496,305.182 341.663,300.515 338.5,296.5C 319.8,307.854 299.8,315.854 278.5,320.5C 277.5,320.5 276.5,320.5 275.5,320.5C 272.5,320.5 269.5,320.5 266.5,320.5C 255.162,320.667 243.828,320.5 232.5,320C 232.833,319.667 233.167,319.333 233.5,319C 230.263,317.548 226.93,316.381 223.5,315.5C 223.081,314.328 222.415,313.328 221.5,312.5C 219.556,313.189 217.556,313.689 215.5,314C 217.5,314.667 219.5,315.333 221.5,316C 222.696,316.654 222.696,317.154 221.5,317.5C 215.962,317.113 210.295,316.78 204.5,316.5C 193.696,314.238 183.696,310.238 174.5,304.5C 174.611,303.883 174.944,303.383 175.5,303C 174.195,300.852 172.362,299.352 170,298.5C 169.667,297.5 169.333,296.5 169,295.5C 166.736,298.624 164.57,298.791 162.5,296C 163.308,295.692 163.975,295.192 164.5,294.5C 162.541,291.394 160.374,291.06 158,293.5C 156.84,298.434 156.34,303.434 156.5,308.5C 155.5,308.5 154.5,308.5 153.5,308.5C 153.702,310.989 153.202,313.323 152,315.5C 150.773,310.476 149.44,305.476 148,300.5C 147.392,298.934 146.558,297.6 145.5,296.5C 145.5,294.833 145.5,293.167 145.5,291.5C 145.5,288.167 145.5,284.833 145.5,281.5C 141.833,281.5 138.167,281.5 134.5,281.5C 132.804,281.685 131.471,282.519 130.5,284C 132.386,288.734 133.719,293.901 134.5,299.5C 133.5,299.5 132.5,299.5 131.5,299.5C 131.5,300.833 131.5,302.167 131.5,303.5C 130.178,303.67 129.011,303.337 128,302.5C 126.887,303.305 125.721,303.972 124.5,304.5C 119.836,296.818 116.502,288.484 114.5,279.5C 114.681,276.603 114.348,273.77 113.5,271C 114.167,270.333 114.833,269.667 115.5,269C 114.978,268.05 114.311,267.216 113.5,266.5C 114.716,265.904 116.049,265.737 117.5,266C 115.383,264.267 113.883,262.1 113,259.5C 111.462,252.733 110.295,245.9 109.5,239C 109.929,236.417 110.596,233.917 111.5,231.5C 111.43,230.228 111.097,229.062 110.5,228C 112.396,221.571 114.063,215.071 115.5,208.5C 115.32,207.446 114.987,206.446 114.5,205.5C 117.297,203.743 118.297,201.41 117.5,198.5C 118.946,196.382 119.613,194.049 119.5,191.5C 122.999,191.741 123.332,190.908 120.5,189C 121.899,187.938 122.899,186.605 123.5,185C 122.291,180.161 123.958,176.494 128.5,174C 127.549,173.282 127.383,172.449 128,171.5C 129.351,171.554 130.518,171.054 131.5,170C 131.355,169.228 131.022,168.561 130.5,168C 131.642,165.55 132.642,163.05 133.5,160.5C 137.672,152.653 143.339,145.987 150.5,140.5C 155.292,137.597 159.958,134.431 164.5,131C 165.448,130.517 166.448,130.351 167.5,130.5C 167.5,132.833 167.5,135.167 167.5,137.5C 166.167,137.5 164.833,137.5 163.5,137.5C 163.421,138.93 163.754,140.264 164.5,141.5C 163.624,142.251 162.624,142.751 161.5,143C 162.517,144.049 162.684,145.216 162,146.5C 161.667,145.833 161.333,145.167 161,144.5C 160.362,145.609 159.862,146.775 159.5,148C 162.533,151.777 161.533,153.943 156.5,154.5C 155.885,156.116 154.885,157.449 153.5,158.5C 154.167,158.833 154.833,159.167 155.5,159.5C 157.036,158.751 158.369,157.751 159.5,156.5C 160.332,167.819 160.832,179.152 161,190.5C 161.383,191.056 161.883,191.389 162.5,191.5 Z"/></g>
<g><path style="opacity:1" fill="#081c1a" d="M 359.5,248.5 C 357.342,250.22 354.675,251.053 351.5,251C 356.464,251.42 356.631,252.253 352,253.5C 347.377,250.382 343.377,251.048 340,255.5C 339.667,254.5 339.333,253.5 339,252.5C 338.262,255.212 338.929,257.545 341,259.5C 343.776,258.315 346.61,258.315 349.5,259.5C 352.995,258.226 355.995,256.226 358.5,253.5C 359.308,253.808 359.975,254.308 360.5,255C 359.328,255.419 358.328,256.085 357.5,257C 360.666,257.934 361.666,259.767 360.5,262.5C 352.294,260.882 343.961,260.215 335.5,260.5C 336.167,256.5 336.833,252.5 337.5,248.5C 344.833,248.5 352.167,248.5 359.5,248.5 Z"/></g>
<g><path style="opacity:1" fill="#061d18" d="M 138.5,248.5 C 145.833,248.5 153.167,248.5 160.5,248.5C 160.215,251.829 160.882,254.829 162.5,257.5C 162.5,258.5 162.5,259.5 162.5,260.5C 154.447,260.225 146.447,260.725 138.5,262C 137.594,263.699 137.261,265.533 137.5,267.5C 136.73,264.383 136.397,261.217 136.5,258C 137.908,257.685 139.241,258.018 140.5,259C 139.833,259.333 139.167,259.667 138.5,260C 140.167,260.667 141.833,260.667 143.5,260C 147.673,255.913 152.673,253.413 158.5,252.5C 151.656,251.347 144.99,250.014 138.5,248.5 Z"/></g>
<g><path style="opacity:1" fill="#38e9cc" d="M 164.5,199.5 C 165.222,199.918 165.722,200.584 166,201.5C 166.212,204.758 166.712,207.924 167.5,211C 166.41,213.279 166.744,215.446 168.5,217.5C 169.541,215.415 171.041,213.748 173,212.5C 173.499,208.179 173.666,203.846 173.5,199.5C 174.482,203.316 175.149,207.316 175.5,211.5C 172.332,218.181 169.999,225.181 168.5,232.5C 167.883,232.611 167.383,232.944 167,233.5C 166.873,236.604 166.707,239.604 166.5,242.5C 169.167,243.167 171.833,243.833 174.5,244.5C 172.999,245.752 171.332,246.752 169.5,247.5C 168.686,249.766 168.186,252.1 168,254.5C 167.667,254.167 167.333,253.833 167,253.5C 165.333,254.733 163.833,256.067 162.5,257.5C 160.882,254.829 160.215,251.829 160.5,248.5C 153.167,248.5 145.833,248.5 138.5,248.5C 137.631,246.283 137.298,243.95 137.5,241.5C 144.746,240.536 152.08,240.203 159.5,240.5C 159.596,234.802 160.096,229.135 161,223.5C 165.067,215.904 166.234,207.904 164.5,199.5 Z"/></g>
<g><path style="opacity:1" fill="#2ec5c2" d="M 398.5,210.5 C 400.655,219.569 401.655,228.902 401.5,238.5C 397.5,238.5 393.5,238.5 389.5,238.5C 388.949,235.193 388.616,231.86 388.5,228.5C 389.117,228.611 389.617,228.944 390,229.5C 390.497,231.81 390.663,234.143 390.5,236.5C 393.448,236.777 396.281,236.444 399,235.5C 399.519,227.154 399.352,218.821 398.5,210.5 Z"/></g>
<g><path style="opacity:1" fill="#27e3d8" d="M 323.5,201.5 C 323.21,205.936 323.71,210.27 325,214.5C 325.605,212.519 326.605,212.185 328,213.5C 328.8,218.4 330.3,223.067 332.5,227.5C 333.661,222.121 332.994,216.955 330.5,212C 330.57,211.235 330.903,210.735 331.5,210.5C 335.393,216.817 337.393,223.817 337.5,231.5C 335.913,234.919 335.247,238.585 335.5,242.5C 337.5,242.5 339.5,242.5 341.5,242.5C 343.286,247.941 341.62,248.941 336.5,245.5C 334.401,248.552 331.734,249.886 328.5,249.5C 323.489,249.666 318.489,249.499 313.5,249C 312.167,247 312.167,245 313.5,243C 318.434,241.84 323.434,241.34 328.5,241.5C 328.784,230.422 326.451,219.922 321.5,210C 322.035,207.004 322.702,204.171 323.5,201.5 Z"/></g>
<g><path style="opacity:1" fill="#02160f" d="M 162.5,193.5 C 162.833,193.5 163.167,193.5 163.5,193.5C 163.833,195.5 164.167,197.5 164.5,199.5C 166.234,207.904 165.067,215.904 161,223.5C 160.096,229.135 159.596,234.802 159.5,240.5C 152.08,240.203 144.746,240.536 137.5,241.5C 137.351,240.448 137.517,239.448 138,238.5C 140.287,237.526 142.287,236.193 144,234.5C 145.516,237.006 147.682,237.84 150.5,237C 149.66,235.334 150.16,235.167 152,236.5C 153.488,233.812 154.488,230.812 155,227.5C 156.131,228.604 156.965,228.271 157.5,226.5C 154.771,224.633 155.104,223.633 158.5,223.5C 159.211,218.696 160.544,214.03 162.5,209.5C 161.696,208.059 161.029,206.559 160.5,205C 162.185,201.362 162.851,197.529 162.5,193.5 Z"/></g>
<g><path style="opacity:1" fill="#3ce7c9" d="M 326.5,159.5 C 327.468,161.607 327.802,163.941 327.5,166.5C 327.666,174.84 327.5,183.173 327,191.5C 326.267,196.906 325.6,202.24 325,207.5C 326.154,209.957 327.488,209.957 329,207.5C 331.939,202.287 333.272,196.62 333,190.5C 333.383,189.944 333.883,189.611 334.5,189.5C 334.258,196.62 333.258,203.62 331.5,210.5C 330.903,210.735 330.57,211.235 330.5,212C 332.994,216.955 333.661,222.121 332.5,227.5C 330.3,223.067 328.8,218.4 328,213.5C 326.605,212.185 325.605,212.519 325,214.5C 323.71,210.27 323.21,205.936 323.5,201.5C 325.817,187.608 326.817,173.608 326.5,159.5 Z"/></g>
<g><path style="opacity:1" fill="#49f0bd" d="M 171.5,165.5 C 171.429,176.886 172.095,188.219 173.5,199.5C 173.666,203.846 173.499,208.179 173,212.5C 171.041,213.748 169.541,215.415 168.5,217.5C 166.744,215.446 166.41,213.279 167.5,211C 166.712,207.924 166.212,204.758 166,201.5C 165.722,200.584 165.222,199.918 164.5,199.5C 164.167,197.5 163.833,195.5 163.5,193.5C 164.179,191.186 165.512,190.853 167.5,192.5C 168.774,195.367 169.607,198.367 170,201.5C 170.333,201.167 170.667,200.833 171,200.5C 170.419,188.675 170.586,177.009 171.5,165.5 Z"/></g>
<g><path style="opacity:1" fill="#43f4c2" d="M 335.5,179.5 C 335.167,182.833 334.833,186.167 334.5,189.5C 333.883,189.611 333.383,189.944 333,190.5C 333.272,196.62 331.939,202.287 329,207.5C 327.488,209.957 326.154,209.957 325,207.5C 325.6,202.24 326.267,196.906 327,191.5C 327.5,183.173 327.666,174.84 327.5,166.5C 328.167,172.346 328.833,178.346 329.5,184.5C 329.594,182.761 329.761,180.761 330,178.5C 330.862,180.087 331.529,181.754 332,183.5C 332.333,183.167 332.667,182.833 333,182.5C 334.059,169.676 333.226,157.009 330.5,144.5C 327.833,144.5 325.167,144.5 322.5,144.5C 328.283,139.635 332.117,140.968 334,148.5C 335.181,158.8 335.681,169.133 335.5,179.5 Z"/></g>
<g><path style="opacity:1" fill="#3ef3b9" d="M 178.5,156.5 C 181.339,158.671 184.673,160.004 188.5,160.5C 189.083,162.002 189.916,163.335 191,164.5C 192.122,162.58 192.956,160.58 193.5,158.5C 194.167,158.5 194.833,158.5 195.5,158.5C 196.326,160.264 197.659,161.598 199.5,162.5C 203.63,167.131 207.963,171.631 212.5,176C 216.369,174.921 220.369,174.088 224.5,173.5C 237.492,172.265 250.492,172.265 263.5,173.5C 262.359,174.425 262.359,175.259 263.5,176C 261.577,176.808 259.577,177.308 257.5,177.5C 250.856,176.452 244.19,176.286 237.5,177C 237.833,177.333 238.167,177.667 238.5,178C 234.789,178.175 231.122,178.675 227.5,179.5C 222.914,180.263 218.914,181.93 215.5,184.5C 213.712,185.622 211.712,185.789 209.5,185C 202.276,176.942 194.276,169.775 185.5,163.5C 182.897,161.379 180.564,159.046 178.5,156.5 Z"/></g>
<g><path style="opacity:1" fill="#46f6b7" d="M 322.5,144.5 C 325.167,144.5 327.833,144.5 330.5,144.5C 333.226,157.009 334.059,169.676 333,182.5C 332.667,182.833 332.333,183.167 332,183.5C 331.529,181.754 330.862,180.087 330,178.5C 329.761,180.761 329.594,182.761 329.5,184.5C 328.833,178.346 328.167,172.346 327.5,166.5C 327.802,163.941 327.468,161.607 326.5,159.5C 325.835,157.631 325.169,155.631 324.5,153.5C 315.845,159.498 307.512,165.831 299.5,172.5C 292.884,172.124 289.551,175.124 289.5,181.5C 288.022,181.238 286.689,181.571 285.5,182.5C 286.999,183.904 286.666,184.57 284.5,184.5C 281.58,183.251 279.247,181.251 277.5,178.5C 280.099,177.969 282.765,177.802 285.5,178C 286.973,177.29 287.64,176.124 287.5,174.5C 288.203,172.284 289.536,170.451 291.5,169C 299.692,162.302 307.692,155.469 315.5,148.5C 317.833,147.167 320.167,145.833 322.5,144.5 Z"/></g>
<g><path style="opacity:1" fill="#051b11" d="M 178.5,156.5 C 180.564,159.046 182.897,161.379 185.5,163.5C 182.95,162.642 180.45,161.642 178,160.5C 177.667,161.167 177.333,161.833 177,162.5C 176.405,161.101 176.572,159.768 177.5,158.5C 176.349,157.269 175.183,157.269 174,158.5C 173.434,174.51 174.267,190.51 176.5,206.5C 176.493,208.369 176.16,210.036 175.5,211.5C 175.149,207.316 174.482,203.316 173.5,199.5C 172.095,188.219 171.429,176.886 171.5,165.5C 171.948,161.476 172.614,157.476 173.5,153.5C 174.94,154.952 176.606,155.952 178.5,156.5 Z"/></g>
<g><path style="opacity:1" fill="#020d0b" d="M 326.5,159.5 C 326.817,173.608 325.817,187.608 323.5,201.5C 322.702,204.171 322.035,207.004 321.5,210C 326.451,219.922 328.784,230.422 328.5,241.5C 323.434,241.34 318.434,241.84 313.5,243C 312.167,245 312.167,247 313.5,249C 318.489,249.499 323.489,249.666 328.5,249.5C 327.311,252.612 326.311,255.778 325.5,259C 321.247,259.2 317.08,259.7 313,260.5C 312.192,262.579 312.359,264.579 313.5,266.5C 315.854,267.06 318.187,267.727 320.5,268.5C 317.452,272.215 314.119,275.548 310.5,278.5C 297.058,289.214 281.724,295.881 264.5,298.5C 249.993,298.907 236.326,298.241 223.5,296.5C 217.709,294.903 212.042,292.903 206.5,290.5C 195.59,284.775 185.924,277.275 177.5,268C 179.952,267.71 182.285,267.044 184.5,266C 185.833,264.333 185.833,262.667 184.5,261C 180.619,259.81 176.619,259.143 172.5,259C 171.065,256.341 170.065,253.508 169.5,250.5C 174.132,249.672 178.798,249.172 183.5,249C 185.515,247.445 185.848,245.611 184.5,243.5C 179.278,242.031 173.945,241.364 168.5,241.5C 168.5,238.5 168.5,235.5 168.5,232.5C 169.999,225.181 172.332,218.181 175.5,211.5C 176.16,210.036 176.493,208.369 176.5,206.5C 174.267,190.51 173.434,174.51 174,158.5C 175.183,157.269 176.349,157.269 177.5,158.5C 176.572,159.768 176.405,161.101 177,162.5C 177.333,161.833 177.667,161.167 178,160.5C 180.45,161.642 182.95,162.642 185.5,163.5C 194.276,169.775 202.276,176.942 209.5,185C 211.712,185.789 213.712,185.622 215.5,184.5C 238.91,177.243 262.077,177.91 285,186.5C 290.324,182.343 295.157,177.676 299.5,172.5C 307.512,165.831 315.845,159.498 324.5,153.5C 325.169,155.631 325.835,157.631 326.5,159.5 Z"/></g>
<g><path style="opacity:1" fill="#25d9cf" d="M 251.5,259.5 C 249.904,261.832 248.738,264.499 248,267.5C 246.989,268.337 245.822,268.67 244.5,268.5C 244.5,267.5 244.5,266.5 244.5,265.5C 245.929,262.692 246.595,259.692 246.5,256.5C 240.615,255.15 238.282,251.65 239.5,246C 245.833,245.333 252.167,245.333 258.5,246C 259.554,247.388 259.72,248.888 259,250.5C 255.841,253.14 253.341,256.14 251.5,259.5 Z"/></g>
<g><path style="opacity:1" fill="#34e0c2" d="M 210.5,220.5 C 217.267,221.083 222.767,224.083 227,229.5C 229.445,233.054 228.779,235.721 225,237.5C 221.459,234.295 217.626,231.462 213.5,229C 206.848,227.779 200.681,228.946 195,232.5C 191.641,231.771 190.308,229.771 191,226.5C 193.826,224.171 196.992,222.504 200.5,221.5C 203.807,220.949 207.14,220.616 210.5,220.5 Z"/></g>
<g><path style="opacity:1" fill="#33e1c8" d="M 283.5,220.5 C 292.174,219.686 300.008,221.686 307,226.5C 308.141,229.857 306.975,231.857 303.5,232.5C 297.302,228.815 290.635,227.648 283.5,229C 280.418,230.872 277.751,233.205 275.5,236C 270.333,237.5 268.5,235.667 270,230.5C 273.767,226.048 278.267,222.714 283.5,220.5 Z"/></g>
<g><path style="opacity:1" fill="#187666" d="M 210.5,220.5 C 207.14,220.616 203.807,220.949 200.5,221.5C 203.708,219.469 207.041,219.135 210.5,220.5 Z"/></g>
<g><path style="opacity:1" fill="#40e7b6" d="M 287.5,174.5 C 287.64,176.124 286.973,177.29 285.5,178C 282.765,177.802 280.099,177.969 277.5,178.5C 279.247,181.251 281.58,183.251 284.5,184.5C 286.666,184.57 286.999,183.904 285.5,182.5C 286.689,181.571 288.022,181.238 289.5,181.5C 289.551,175.124 292.884,172.124 299.5,172.5C 295.157,177.676 290.324,182.343 285,186.5C 262.077,177.91 238.91,177.243 215.5,184.5C 218.914,181.93 222.914,180.263 227.5,179.5C 231.122,178.675 234.789,178.175 238.5,178C 238.167,177.667 237.833,177.333 237.5,177C 244.19,176.286 250.856,176.452 257.5,177.5C 259.577,177.308 261.577,176.808 263.5,176C 262.359,175.259 262.359,174.425 263.5,173.5C 250.492,172.265 237.492,172.265 224.5,173.5C 244.361,168.77 264.028,169.77 283.5,176.5C 285.073,176.248 286.406,175.582 287.5,174.5 Z"/></g>
<g><path style="opacity:1" fill="#03120f" d="M 276.5,148.5 C 257.458,143.001 238.458,143.168 219.5,149C 217.074,150.145 214.741,151.478 212.5,153C 215.089,156.097 218.089,158.597 221.5,160.5C 239.461,155.215 257.461,155.215 275.5,160.5C 279.514,158.996 282.848,156.496 285.5,153C 282.641,151.74 279.974,150.24 277.5,148.5C 280.144,148.16 282.477,148.827 284.5,150.5C 285.086,150.291 285.586,149.957 286,149.5C 286.743,151.441 286.576,153.274 285.5,155C 288.051,156.516 287.718,157.349 284.5,157.5C 284.5,158.5 284.5,159.5 284.5,160.5C 286.492,160.672 288.158,160.005 289.5,158.5C 290.795,159.098 292.128,159.598 293.5,160C 291.604,161.065 291.437,161.898 293,162.5C 294.879,160.987 297.046,160.321 299.5,160.5C 299.478,157.002 300.978,155.669 304,156.5C 304.483,155.552 304.649,154.552 304.5,153.5C 307.831,151.27 311.498,149.604 315.5,148.5C 307.692,155.469 299.692,162.302 291.5,169C 289.536,170.451 288.203,172.284 287.5,174.5C 286.406,175.582 285.073,176.248 283.5,176.5C 264.028,169.77 244.361,168.77 224.5,173.5C 220.369,174.088 216.369,174.921 212.5,176C 207.963,171.631 203.63,167.131 199.5,162.5C 200.847,163.028 202.181,163.195 203.5,163C 204.212,160.119 205.878,157.952 208.5,156.5C 208.987,155.554 209.32,154.554 209.5,153.5C 208.612,151.845 208.112,150.178 208,148.5C 210.401,149.602 212.901,149.769 215.5,149C 213.203,147.84 213.536,146.84 216.5,146C 223.189,144.736 229.856,143.402 236.5,142C 243.682,142.402 250.849,142.235 258,141.5C 262.877,143.177 267.711,144.843 272.5,146.5C 274.866,145.016 276.199,145.683 276.5,148.5 Z"/></g>
<g><path style="opacity:1" fill="#0fc2e3" d="M 276.5,148.5 C 276.833,148.5 277.167,148.5 277.5,148.5C 279.974,150.24 282.641,151.74 285.5,153C 282.848,156.496 279.514,158.996 275.5,160.5C 257.461,155.215 239.461,155.215 221.5,160.5C 218.089,158.597 215.089,156.097 212.5,153C 214.741,151.478 217.074,150.145 219.5,149C 238.458,143.168 257.458,143.001 276.5,148.5 Z"/></g>
<g><path style="opacity:1" fill="#54f6b1" d="M 193.5,158.5 C 192.956,160.58 192.122,162.58 191,164.5C 189.916,163.335 189.083,162.002 188.5,160.5C 184.673,160.004 181.339,158.671 178.5,156.5C 176.606,155.952 174.94,154.952 173.5,153.5C 172.614,157.476 171.948,161.476 171.5,165.5C 170.586,177.009 170.419,188.675 171,200.5C 170.667,200.833 170.333,201.167 170,201.5C 169.607,198.367 168.774,195.367 167.5,192.5C 165.512,190.853 164.179,191.186 163.5,193.5C 163.167,193.5 162.833,193.5 162.5,193.5C 162.5,192.833 162.5,192.167 162.5,191.5C 162.333,178.496 162.5,165.496 163,152.5C 163.92,149.899 164.587,147.232 165,144.5C 166.864,141.793 169.364,140.959 172.5,142C 179.974,146.982 186.974,152.482 193.5,158.5 Z"/></g>
<g><path style="opacity:0.004" fill="#fefffe" d="M 61.5,258.5 C 62.8333,259.167 62.8333,259.167 61.5,258.5 Z"/></g>
<g><path style="opacity:1" fill="#1ed7da" d="M 337.5,231.5 C 338.477,234.287 338.81,237.287 338.5,240.5C 345.508,240.334 352.508,240.5 359.5,241C 360.779,243.498 360.779,245.998 359.5,248.5C 352.167,248.5 344.833,248.5 337.5,248.5C 336.833,252.5 336.167,256.5 335.5,260.5C 343.961,260.215 352.294,260.882 360.5,262.5C 360.784,264.415 360.451,266.081 359.5,267.5C 350.056,267.42 340.723,267.753 331.5,268.5C 328.399,271.835 325.399,275.335 322.5,279C 318.141,283.505 313.141,287.005 307.5,289.5C 308.502,287.989 309.169,286.322 309.5,284.5C 314.432,283.36 314.765,281.36 310.5,278.5C 314.119,275.548 317.452,272.215 320.5,268.5C 318.187,267.727 315.854,267.06 313.5,266.5C 312.359,264.579 312.192,262.579 313,260.5C 317.08,259.7 321.247,259.2 325.5,259C 326.311,255.778 327.311,252.612 328.5,249.5C 331.734,249.886 334.401,248.552 336.5,245.5C 341.62,248.941 343.286,247.941 341.5,242.5C 339.5,242.5 337.5,242.5 335.5,242.5C 335.247,238.585 335.913,234.919 337.5,231.5 Z"/></g>
<g><path style="opacity:1" fill="#249ba1" d="M 331.5,268.5 C 340.723,267.753 350.056,267.42 359.5,267.5C 359.389,268.117 359.056,268.617 358.5,269C 357,269.167 355.5,269.333 354,269.5C 346.523,268.668 339.023,268.335 331.5,268.5 Z"/></g>
<g><path style="opacity:0.004" fill="#fefffe" d="M 491.5,269.5 C 492.833,270.167 492.833,270.167 491.5,269.5 Z"/></g>
<g><path style="opacity:1" fill="#1bc6ce" d="M 251.5,259.5 C 254.097,269.757 260.097,272.257 269.5,267C 275.255,266.925 275.922,268.925 271.5,273C 262.544,278.627 255.044,277.127 249,268.5C 241.762,277.843 233.595,278.843 224.5,271.5C 223.253,269.994 223.253,268.494 224.5,267C 228.058,267.745 231.724,268.579 235.5,269.5C 239.139,269.512 242.139,268.179 244.5,265.5C 244.5,266.5 244.5,267.5 244.5,268.5C 245.822,268.67 246.989,268.337 248,267.5C 248.738,264.499 249.904,261.832 251.5,259.5 Z"/></g>
<g><path style="opacity:0.004" fill="#fefffe" d="M 467.5,272.5 C 468.833,273.167 468.833,273.167 467.5,272.5 Z"/></g>
<g><path style="opacity:1" fill="#29dcd1" d="M 168.5,232.5 C 168.5,235.5 168.5,238.5 168.5,241.5C 173.945,241.364 179.278,242.031 184.5,243.5C 185.848,245.611 185.515,247.445 183.5,249C 178.798,249.172 174.132,249.672 169.5,250.5C 170.065,253.508 171.065,256.341 172.5,259C 176.619,259.143 180.619,259.81 184.5,261C 185.833,262.667 185.833,264.333 184.5,266C 182.285,267.044 179.952,267.71 177.5,268C 185.924,277.275 195.59,284.775 206.5,290.5C 204.32,291.117 202.32,292.117 200.5,293.5C 198.49,291.829 196.157,291.162 193.5,291.5C 183.381,286.061 174.714,278.728 167.5,269.5C 159.335,268.278 151.168,268.278 143,269.5C 140.822,269.605 138.988,268.939 137.5,267.5C 137.261,265.533 137.594,263.699 138.5,262C 146.447,260.725 154.447,260.225 162.5,260.5C 162.5,259.5 162.5,258.5 162.5,257.5C 163.833,256.067 165.333,254.733 167,253.5C 167.333,253.833 167.667,254.167 168,254.5C 168.186,252.1 168.686,249.766 169.5,247.5C 171.332,246.752 172.999,245.752 174.5,244.5C 171.833,243.833 169.167,243.167 166.5,242.5C 166.707,239.604 166.873,236.604 167,233.5C 167.383,232.944 167.883,232.611 168.5,232.5 Z"/></g>
<g><path style="opacity:0.004" fill="#fefffe" d="M 70.5,276.5 C 71.8333,277.167 71.8333,277.167 70.5,276.5 Z"/></g>
<g><path style="opacity:0.306" fill="#a8abaa" d="M 84.5,283.5 C 86.0739,285.102 86.7406,287.102 86.5,289.5C 85.2616,287.786 84.595,285.786 84.5,283.5 Z"/></g>
<g><path style="opacity:1" fill="#3ae9c8" d="M 108.5,255.5 C 109.865,263.661 111.865,271.661 114.5,279.5C 116.502,288.484 119.836,296.818 124.5,304.5C 125.234,305.708 125.567,307.041 125.5,308.5C 125.489,310.547 125.156,312.547 124.5,314.5C 125,316.5 125.5,318.5 126,320.5C 127.676,321.061 129.009,322.061 130,323.5C 130.311,325.556 130.811,327.556 131.5,329.5C 131.167,329.833 130.833,330.167 130.5,330.5C 129.571,329.311 129.238,327.978 129.5,326.5C 127.389,327.38 125.389,327.38 123.5,326.5C 112.805,310.738 104.805,293.738 99.5,275.5C 98.8333,271.167 98.1667,266.833 97.5,262.5C 100.755,268.3 102.421,274.633 102.5,281.5C 104.226,281.185 105.893,281.019 107.5,281C 109.774,283.344 110.941,286.178 111,289.5C 111.13,285.889 111.297,282.389 111.5,279C 109.43,271.341 108.43,263.507 108.5,255.5 Z"/></g>
<g><path style="opacity:0.325" fill="#9c9e9f" d="M 88.5,296.5 C 90.1042,297.287 90.7709,298.62 90.5,300.5C 89.3263,299.486 88.6596,298.153 88.5,296.5 Z"/></g>
<g><path style="opacity:0.318" fill="#858788" d="M 439.5,300.5 C 439.204,302.403 438.537,304.07 437.5,305.5C 437.12,303.302 437.787,301.635 439.5,300.5 Z"/></g>
<g><path style="opacity:0.004" fill="#fefffe" d="M 496.5,302.5 C 497.833,303.167 497.833,303.167 496.5,302.5 Z"/></g>
<g><path style="opacity:1" fill="#404344" d="M 430.5,317.5 C 429.567,320.37 427.9,322.704 425.5,324.5C 425.67,323.178 425.337,322.011 424.5,321C 425.448,320.517 426.448,320.351 427.5,320.5C 427.5,319.5 427.5,318.5 427.5,317.5C 428.5,317.5 429.5,317.5 430.5,317.5 Z"/></g>
<g><path style="opacity:0.004" fill="#c2c3c3" d="M 425.5,324.5 C 425.5,325.833 424.833,326.5 423.5,326.5C 423.833,325.5 424.5,324.833 425.5,324.5 Z"/></g>
<g><path style="opacity:0.004" fill="#fefffe" d="M 439.5,325.5 C 440.833,326.167 440.833,326.167 439.5,325.5 Z"/></g>
<g><path style="opacity:0.004" fill="#fefffe" d="M 47.5,327.5 C 48.8333,328.167 48.8333,328.167 47.5,327.5 Z"/></g>
<g><path style="opacity:0.004" fill="#c1c3c3" d="M 423.5,326.5 C 423.5,327.833 422.833,328.5 421.5,328.5C 421.833,327.5 422.5,326.833 423.5,326.5 Z"/></g>
<g><path style="opacity:0.004" fill="#c0c3c3" d="M 421.5,328.5 C 421.5,329.833 420.833,330.5 419.5,330.5C 419.833,329.5 420.5,328.833 421.5,328.5 Z"/></g>
<g><path style="opacity:0.004" fill="#fefffe" d="M 58.5,330.5 C 59.8333,331.167 59.8333,331.167 58.5,330.5 Z"/></g>
<g><path style="opacity:0.024" fill="#bbbcbc" d="M 105.5,330.5 C 106.906,330.973 107.573,331.973 107.5,333.5C 106.094,333.027 105.427,332.027 105.5,330.5 Z"/></g>
<g><path style="opacity:0.847" fill="#7f8482" d="M 122.5,352.5 C 125.167,353.833 127.167,355.833 128.5,358.5C 125.833,357.167 123.833,355.167 122.5,352.5 Z"/></g>
<g><path style="opacity:0.957" fill="#707474" d="M 374.5,354.5 C 373.167,357.833 370.833,360.167 367.5,361.5C 368.167,359.833 368.833,358.167 369.5,356.5C 371.514,356.608 373.18,355.942 374.5,354.5 Z"/></g>
<g><path style="opacity:0.004" fill="#fefffe" d="M 430.5,363.5 C 431.833,364.167 431.833,364.167 430.5,363.5 Z"/></g>
<g><path style="opacity:0.004" fill="#fefffe" d="M 479.5,368.5 C 480.833,369.167 480.833,369.167 479.5,368.5 Z"/></g>
<g><path style="opacity:0.62" fill="#919596" d="M 142.5,371.5 C 144.404,371.738 145.738,372.738 146.5,374.5C 144.596,374.262 143.262,373.262 142.5,371.5 Z"/></g>
<g><path style="opacity:1" fill="#081110" d="M 421.5,241.5 C 426.576,243.053 430.743,246.053 434,250.5C 444.067,266.269 445.9,282.936 439.5,300.5C 437.787,301.635 437.12,303.302 437.5,305.5C 435.904,309.987 433.57,313.987 430.5,317.5C 429.5,317.5 428.5,317.5 427.5,317.5C 427.5,318.5 427.5,319.5 427.5,320.5C 426.448,320.351 425.448,320.517 424.5,321C 425.337,322.011 425.67,323.178 425.5,324.5C 424.5,324.833 423.833,325.5 423.5,326.5C 422.5,326.833 421.833,327.5 421.5,328.5C 420.5,328.833 419.833,329.5 419.5,330.5C 408.017,341.575 394.35,348.408 378.5,351C 377.468,352.627 376.134,353.793 374.5,354.5C 373.18,355.942 371.514,356.608 369.5,356.5C 368.833,358.167 368.167,359.833 367.5,361.5C 359.996,370.01 351.33,377.01 341.5,382.5C 340.227,383.077 340.227,383.743 341.5,384.5C 342.736,385.246 344.07,385.579 345.5,385.5C 348.688,386.028 351.021,387.695 352.5,390.5C 353.403,393.391 353.736,396.391 353.5,399.5C 351.31,403.595 347.976,406.262 343.5,407.5C 340.911,407.461 338.911,408.461 337.5,410.5C 331.392,412.944 325.059,414.611 318.5,415.5C 314.575,415.43 310.909,416.097 307.5,417.5C 288.343,420.895 269.009,422.228 249.5,421.5C 229.998,422.228 210.664,420.895 191.5,417.5C 191.082,416.778 190.416,416.278 189.5,416C 186.518,415.502 183.518,415.335 180.5,415.5C 177.219,415.58 174.219,414.913 171.5,413.5C 169.485,412.076 167.152,411.41 164.5,411.5C 157.11,409.888 150.61,406.555 145,401.5C 141.536,397.17 141.703,393.17 145.5,389.5C 147.027,389.573 148.027,388.906 148.5,387.5C 151.409,385.644 154.409,383.977 157.5,382.5C 157.027,381.094 156.027,380.427 154.5,380.5C 151.467,378.984 148.8,376.984 146.5,374.5C 145.738,372.738 144.404,371.738 142.5,371.5C 137.206,367.873 132.539,363.54 128.5,358.5C 127.167,355.833 125.167,353.833 122.5,352.5C 116.364,347.034 111.364,340.701 107.5,333.5C 107.573,331.973 106.906,330.973 105.5,330.5C 100.222,323.616 96.2224,315.949 93.5,307.5C 93.2865,305.856 93.6198,304.356 94.5,303C 92.1449,301.135 91.9782,298.969 94,296.5C 94.8373,298.007 96.0039,298.507 97.5,298C 99.055,296.417 100.222,294.584 101,292.5C 101.756,294.809 101.256,296.809 99.5,298.5C 101.385,299.197 101.718,300.197 100.5,301.5C 103.232,302.639 105.232,301.805 106.5,299C 102.873,292.25 100.54,284.416 99.5,275.5C 104.805,293.738 112.805,310.738 123.5,326.5C 128.111,334.096 133.778,340.096 140.5,344.5C 135.428,332.462 130.428,320.462 125.5,308.5C 125.567,307.041 125.234,305.708 124.5,304.5C 125.721,303.972 126.887,303.305 128,302.5C 129.011,303.337 130.178,303.67 131.5,303.5C 131.5,302.167 131.5,300.833 131.5,299.5C 132.5,299.5 133.5,299.5 134.5,299.5C 133.719,293.901 132.386,288.734 130.5,284C 131.471,282.519 132.804,281.685 134.5,281.5C 134.19,284.713 134.523,287.713 135.5,290.5C 135.76,298.06 137.093,305.393 139.5,312.5C 139.5,313.167 139.5,313.833 139.5,314.5C 153.58,355.914 181.913,381.58 224.5,391.5C 213.674,392.33 202.674,392.83 191.5,393C 189.641,393.601 189.308,394.434 190.5,395.5C 197.591,399.365 205.258,401.865 213.5,403C 236.167,403.667 258.833,403.667 281.5,403C 290.808,401.977 299.475,399.144 307.5,394.5C 306.311,393.571 304.978,393.238 303.5,393.5C 293.5,392.833 283.5,392.167 273.5,391.5C 285.608,388.579 296.942,383.912 307.5,377.5C 313.082,374.589 318.415,371.256 323.5,367.5C 326.412,365.934 329.079,363.934 331.5,361.5C 332.478,361.977 333.311,362.643 334,363.5C 334.317,361.699 334.984,361.366 336,362.5C 338.966,360.703 341.799,358.703 344.5,356.5C 345.606,354.716 345.606,352.882 344.5,351C 345.699,347.471 348.032,345.804 351.5,346C 350.396,347.131 350.729,347.965 352.5,348.5C 352.698,345.215 354.365,343.548 357.5,343.5C 357.281,339.473 358.448,338.806 361,341.5C 362,340.167 363,340.167 364,341.5C 364.47,340.423 364.303,339.423 363.5,338.5C 372.834,336.12 382.167,333.287 391.5,330C 416.798,318.244 428.298,298.41 426,270.5C 423.071,261.904 417.237,256.404 408.5,254C 397.992,253.175 387.658,253.341 377.5,254.5C 376.518,257.962 376.185,261.629 376.5,265.5C 379.713,265.81 382.713,265.477 385.5,264.5C 415.208,260.733 423.374,272.4 410,299.5C 408.618,302.043 406.785,304.043 404.5,305.5C 403.773,303.283 403.94,300.95 405,298.5C 405.324,296.431 406.158,296.098 407.5,297.5C 410.289,294.721 410.955,291.554 409.5,288C 411.118,283.765 411.284,279.598 410,275.5C 409.586,275.957 409.086,276.291 408.5,276.5C 407.526,274.257 407.192,271.924 407.5,269.5C 396.147,268.604 384.813,268.604 373.5,269.5C 374.624,264.813 374.624,260.147 373.5,255.5C 370.856,255.16 368.523,255.827 366.5,257.5C 364.899,256.965 364.399,255.965 365,254.5C 368,253.167 371,253.167 374,254.5C 374.692,253.975 375.192,253.308 375.5,252.5C 374.674,251.549 374.508,250.549 375,249.5C 375.333,249.833 375.667,250.167 376,250.5C 377.009,249.342 378.342,248.675 380,248.5C 391.386,250.092 402.553,250.759 413.5,250.5C 414.506,250.062 414.506,249.396 413.5,248.5C 411.577,247.692 409.577,247.192 407.5,247C 411.052,246.015 414.552,244.848 418,243.5C 419.762,243.944 419.595,244.444 417.5,245C 419.829,245.51 421.829,244.844 423.5,243C 422.584,242.722 421.918,242.222 421.5,241.5 Z"/></g>
<g><path style="opacity:1" fill="#031310" d="M 393.5,315.5 C 384.53,320.64 374.863,324.14 364.5,326C 362.301,329.973 360.634,334.14 359.5,338.5C 360.833,338.5 362.167,338.5 363.5,338.5C 364.303,339.423 364.47,340.423 364,341.5C 363,340.167 362,340.167 361,341.5C 358.448,338.806 357.281,339.473 357.5,343.5C 354.365,343.548 352.698,345.215 352.5,348.5C 350.729,347.965 350.396,347.131 351.5,346C 348.032,345.804 345.699,347.471 344.5,351C 345.606,352.882 345.606,354.716 344.5,356.5C 341.799,358.703 338.966,360.703 336,362.5C 334.984,361.366 334.317,361.699 334,363.5C 333.311,362.643 332.478,361.977 331.5,361.5C 329.079,363.934 326.412,365.934 323.5,367.5C 344.824,348.498 357.491,324.832 361.5,296.5C 362.487,291.695 362.821,286.695 362.5,281.5C 359.167,281.5 355.833,281.5 352.5,281.5C 352.156,290.249 351.156,298.915 349.5,307.5C 339.309,341.69 317.642,365.357 284.5,378.5C 278.46,381.009 272.126,382.342 265.5,382.5C 250.236,383.557 235.236,382.224 220.5,378.5C 219.416,378.685 218.416,379.018 217.5,379.5C 177.241,366.223 153.241,338.556 145.5,296.5C 146.558,297.6 147.392,298.934 148,300.5C 149.44,305.476 150.773,310.476 152,315.5C 153.202,313.323 153.702,310.989 153.5,308.5C 154.5,308.5 155.5,308.5 156.5,308.5C 156.34,303.434 156.84,298.434 158,293.5C 160.374,291.06 162.541,291.394 164.5,294.5C 163.975,295.192 163.308,295.692 162.5,296C 164.57,298.791 166.736,298.624 169,295.5C 169.333,296.5 169.667,297.5 170,298.5C 172.362,299.352 174.195,300.852 175.5,303C 174.944,303.383 174.611,303.883 174.5,304.5C 169.026,302.513 163.86,299.846 159,296.5C 162.124,317.084 171.291,334.417 186.5,348.5C 194.102,355.763 202.768,361.43 212.5,365.5C 217.348,367.413 222.348,369.08 227.5,370.5C 268.832,378.385 301.665,365.051 326,330.5C 332.608,320.074 336.774,308.74 338.5,296.5C 341.663,300.515 343.496,305.182 344,310.5C 345.076,308.933 345.909,307.266 346.5,305.5C 345.184,302.107 346.184,299.441 349.5,297.5C 350.496,291.537 350.829,285.537 350.5,279.5C 352.167,279.5 353.833,279.5 355.5,279.5C 355.5,278.5 355.5,277.5 355.5,276.5C 357.92,276.292 360.253,276.626 362.5,277.5C 363.429,278.689 363.762,280.022 363.5,281.5C 364.873,281.343 366.207,281.51 367.5,282C 365.519,282.605 365.185,283.605 366.5,285C 365.316,286.18 364.649,287.68 364.5,289.5C 363.398,293.692 363.398,297.859 364.5,302C 362.253,307.986 361.42,314.153 362,320.5C 363.085,321.293 364.252,321.96 365.5,322.5C 367.404,321.74 369.404,321.74 371.5,322.5C 376.104,322.39 379.604,320.39 382,316.5C 383,316.833 384,317.167 385,317.5C 387.791,316.594 390.624,315.927 393.5,315.5 Z"/></g>
<g><path style="opacity:1" fill="#37ddc5" d="M 222.5,320.5 C 231.294,321.596 240.127,322.263 249,322.5C 255.074,322.659 260.908,321.993 266.5,320.5C 269.5,320.5 272.5,320.5 275.5,320.5C 276.568,321.434 277.901,321.768 279.5,321.5C 279.439,323.592 278.439,325.092 276.5,326C 278.101,326.273 279.601,326.773 281,327.5C 281.876,335.26 279.709,342.093 274.5,348C 274.957,348.414 275.291,348.914 275.5,349.5C 274.092,350.243 272.759,351.077 271.5,352C 273.962,353.216 276.629,353.882 279.5,354C 278.359,354.741 278.359,355.575 279.5,356.5C 285.054,356.933 285.554,358.266 281,360.5C 277.794,358.306 274.294,357.473 270.5,358C 270.833,358.333 271.167,358.667 271.5,359C 270.692,359.308 270.025,359.808 269.5,360.5C 271.966,361.123 274.299,361.957 276.5,363C 275.142,363.934 273.808,364.768 272.5,365.5C 271.25,365.423 270.417,364.756 270,363.5C 268.535,365.915 266.368,366.915 263.5,366.5C 263.5,367.5 263.5,368.5 263.5,369.5C 260.262,370.74 254.929,371.407 247.5,371.5C 240.842,370.945 234.175,370.612 227.5,370.5C 222.348,369.08 217.348,367.413 212.5,365.5C 220.126,367.011 227.793,368.345 235.5,369.5C 238.861,368.816 242.195,368.15 245.5,367.5C 246.053,365.061 246.053,362.727 245.5,360.5C 247.013,359.154 248.347,357.654 249.5,356C 248.978,355.05 248.311,354.216 247.5,353.5C 249.89,352.078 251.89,350.244 253.5,348C 253.167,347.667 252.833,347.333 252.5,347C 254.215,346.223 255.215,344.89 255.5,343C 254.003,341.43 253.003,338.93 252.5,335.5C 250.496,335.229 248.829,333.896 247.5,331.5C 247.833,329.167 248.833,328.833 250.5,330.5C 251.705,328.862 253.038,328.529 254.5,329.5C 256.556,327.981 258.89,327.147 261.5,327C 260.391,326.362 259.225,325.862 258,325.5C 252.206,326.601 246.373,326.768 240.5,326C 235.029,324.139 229.362,322.806 223.5,322C 222.944,321.617 222.611,321.117 222.5,320.5 Z"/></g>
<g><path style="opacity:1" fill="#48e7b7" d="M 212.5,319.5 C 213.833,319.5 215.167,319.5 216.5,319.5C 216.5,320.833 216.5,322.167 216.5,323.5C 221.907,323.676 227.24,324.343 232.5,325.5C 232.833,325.833 233.167,326.167 233.5,326.5C 232.271,327.281 230.938,327.781 229.5,328C 230.833,329 232.167,330 233.5,331C 231.981,332.351 230.648,333.851 229.5,335.5C 230.365,335.564 231.365,335.897 232.5,336.5C 233.251,337.376 233.751,338.376 234,339.5C 235.003,337.065 235.503,337.398 235.5,340.5C 235.279,343.943 234.279,344.276 232.5,341.5C 231.492,345.676 229.826,349.51 227.5,353C 223.641,355.007 219.641,356.507 215.5,357.5C 215.649,358.552 215.483,359.552 215,360.5C 211.61,358.61 208.11,356.943 204.5,355.5C 203.694,359.297 201.694,359.464 198.5,356C 200.935,355.925 201.602,355.092 200.5,353.5C 201.93,353.421 203.264,353.754 204.5,354.5C 207.135,352.454 210.135,351.287 213.5,351C 212.833,350.667 212.167,350.333 211.5,350C 215.068,344.203 218.402,338.203 221.5,332C 220.287,330.37 219.454,328.536 219,326.5C 217.817,327.731 216.651,327.731 215.5,326.5C 215.709,325.914 216.043,325.414 216.5,325C 214.096,324.492 213.429,323.325 214.5,321.5C 212.922,320.702 211.256,320.202 209.5,320C 210.448,319.517 211.448,319.351 212.5,319.5 Z"/></g>
<g><path style="opacity:1" fill="#2bd2cc" d="M 125.5,308.5 C 130.428,320.462 135.428,332.462 140.5,344.5C 133.778,340.096 128.111,334.096 123.5,326.5C 125.389,327.38 127.389,327.38 129.5,326.5C 129.238,327.978 129.571,329.311 130.5,330.5C 130.833,330.167 131.167,329.833 131.5,329.5C 130.811,327.556 130.311,325.556 130,323.5C 129.009,322.061 127.676,321.061 126,320.5C 125.5,318.5 125,316.5 124.5,314.5C 125.156,312.547 125.489,310.547 125.5,308.5 Z"/></g>
<g><path style="opacity:1" fill="#14d7e4" d="M 361.5,296.5 C 357.491,324.832 344.824,348.498 323.5,367.5C 318.415,371.256 313.082,374.589 307.5,377.5C 302.818,378.24 298.318,379.573 294,381.5C 292.634,381.294 291.301,380.96 290,380.5C 288.435,381.952 287.102,383.619 286,385.5C 284.902,384.033 283.402,383.199 281.5,383C 283.5,382.167 285.5,381.333 287.5,380.5C 286.398,379.824 285.398,379.158 284.5,378.5C 317.642,365.357 339.309,341.69 349.5,307.5C 350.966,306.653 351.8,305.32 352,303.5C 352.297,297.214 353.13,291.048 354.5,285C 356.769,283.442 359.102,283.276 361.5,284.5C 360.173,288.53 360.173,292.53 361.5,296.5 Z"/></g>
<g><path style="opacity:1" fill="#41e2bc" d="M 216.5,319.5 C 218.5,319.833 220.5,320.167 222.5,320.5C 222.611,321.117 222.944,321.617 223.5,322C 229.362,322.806 235.029,324.139 240.5,326C 246.373,326.768 252.206,326.601 258,325.5C 259.225,325.862 260.391,326.362 261.5,327C 258.89,327.147 256.556,327.981 254.5,329.5C 253.038,328.529 251.705,328.862 250.5,330.5C 248.833,328.833 247.833,329.167 247.5,331.5C 248.829,333.896 250.496,335.229 252.5,335.5C 253.003,338.93 254.003,341.43 255.5,343C 255.215,344.89 254.215,346.223 252.5,347C 252.833,347.333 253.167,347.667 253.5,348C 251.89,350.244 249.89,352.078 247.5,353.5C 248.311,354.216 248.978,355.05 249.5,356C 248.347,357.654 247.013,359.154 245.5,360.5C 246.053,362.727 246.053,365.061 245.5,367.5C 242.195,368.15 238.861,368.816 235.5,369.5C 227.793,368.345 220.126,367.011 212.5,365.5C 202.768,361.43 194.102,355.763 186.5,348.5C 191.024,350.586 195.69,352.253 200.5,353.5C 201.602,355.092 200.935,355.925 198.5,356C 201.694,359.464 203.694,359.297 204.5,355.5C 208.11,356.943 211.61,358.61 215,360.5C 215.483,359.552 215.649,358.552 215.5,357.5C 219.641,356.507 223.641,355.007 227.5,353C 229.826,349.51 231.492,345.676 232.5,341.5C 234.279,344.276 235.279,343.943 235.5,340.5C 235.503,337.398 235.003,337.065 234,339.5C 233.751,338.376 233.251,337.376 232.5,336.5C 231.365,335.897 230.365,335.564 229.5,335.5C 230.648,333.851 231.981,332.351 233.5,331C 232.167,330 230.833,329 229.5,328C 230.938,327.781 232.271,327.281 233.5,326.5C 233.167,326.167 232.833,325.833 232.5,325.5C 227.24,324.343 221.907,323.676 216.5,323.5C 216.5,322.167 216.5,320.833 216.5,319.5 Z"/></g>
<g><path style="opacity:1" fill="#52e9ae" d="M 174.5,304.5 C 183.696,310.238 193.696,314.238 204.5,316.5C 207.167,317.5 209.833,318.5 212.5,319.5C 211.448,319.351 210.448,319.517 209.5,320C 211.256,320.202 212.922,320.702 214.5,321.5C 213.429,323.325 214.096,324.492 216.5,325C 216.043,325.414 215.709,325.914 215.5,326.5C 216.651,327.731 217.817,327.731 219,326.5C 219.454,328.536 220.287,330.37 221.5,332C 218.402,338.203 215.068,344.203 211.5,350C 212.167,350.333 212.833,350.667 213.5,351C 210.135,351.287 207.135,352.454 204.5,354.5C 203.264,353.754 201.93,353.421 200.5,353.5C 195.69,352.253 191.024,350.586 186.5,348.5C 171.291,334.417 162.124,317.084 159,296.5C 163.86,299.846 169.026,302.513 174.5,304.5 Z"/></g>
<g><path style="opacity:1" fill="#041c15" d="M 266.5,320.5 C 260.908,321.993 255.074,322.659 249,322.5C 240.127,322.263 231.294,321.596 222.5,320.5C 220.5,320.167 218.5,319.833 216.5,319.5C 215.167,319.5 213.833,319.5 212.5,319.5C 209.833,318.5 207.167,317.5 204.5,316.5C 210.295,316.78 215.962,317.113 221.5,317.5C 222.696,317.154 222.696,316.654 221.5,316C 219.5,315.333 217.5,314.667 215.5,314C 217.556,313.689 219.556,313.189 221.5,312.5C 222.415,313.328 223.081,314.328 223.5,315.5C 226.93,316.381 230.263,317.548 233.5,319C 233.167,319.333 232.833,319.667 232.5,320C 243.828,320.5 255.162,320.667 266.5,320.5 Z"/></g>
<g><path style="opacity:1" fill="#26e4db" d="M 272.5,365.5 C 273.808,364.768 275.142,363.934 276.5,363C 274.299,361.957 271.966,361.123 269.5,360.5C 270.025,359.808 270.692,359.308 271.5,359C 271.167,358.667 270.833,358.333 270.5,358C 274.294,357.473 277.794,358.306 281,360.5C 285.554,358.266 285.054,356.933 279.5,356.5C 278.359,355.575 278.359,354.741 279.5,354C 276.629,353.882 273.962,353.216 271.5,352C 272.759,351.077 274.092,350.243 275.5,349.5C 275.291,348.914 274.957,348.414 274.5,348C 279.709,342.093 281.876,335.26 281,327.5C 279.601,326.773 278.101,326.273 276.5,326C 278.439,325.092 279.439,323.592 279.5,321.5C 277.901,321.768 276.568,321.434 275.5,320.5C 276.5,320.5 277.5,320.5 278.5,320.5C 282.015,320.288 285.348,320.288 288.5,320.5C 292.966,317.564 297.966,316.064 303.5,316C 305.998,313.556 308.998,312.389 312.5,312.5C 312.5,313.5 312.5,314.5 312.5,315.5C 314.527,315.662 316.527,315.495 318.5,315C 319.337,313.989 319.67,312.822 319.5,311.5C 320.5,311.5 321.5,311.5 322.5,311.5C 322.421,310.07 322.754,308.736 323.5,307.5C 324.989,307.467 326.322,306.967 327.5,306C 327.167,305.667 326.833,305.333 326.5,305C 328.521,304.86 330.355,304.693 332,304.5C 332.584,307.257 332.25,309.923 331,312.5C 328.567,315.267 326.401,318.267 324.5,321.5C 323.815,319.219 323.649,316.886 324,314.5C 322.491,315.09 320.991,315.756 319.5,316.5C 321.401,317.935 321.734,319.602 320.5,321.5C 319.281,320.737 318.281,319.737 317.5,318.5C 314.184,323.138 310.851,327.805 307.5,332.5C 308.383,333.548 309.05,334.715 309.5,336C 307.06,338.869 304.393,341.535 301.5,344C 302.537,347.238 301.703,350.072 299,352.5C 298.586,352.043 298.086,351.709 297.5,351.5C 294.196,355.824 289.863,358.657 284.5,360C 282.606,361.079 282.273,362.413 283.5,364C 279.801,364.999 276.134,365.499 272.5,365.5 Z"/></g>
<g><path style="opacity:1" fill="#23dedb" d="M 338.5,296.5 C 336.774,308.74 332.608,320.074 326,330.5C 301.665,365.051 268.832,378.385 227.5,370.5C 234.175,370.612 240.842,370.945 247.5,371.5C 254.929,371.407 260.262,370.74 263.5,369.5C 263.5,368.5 263.5,367.5 263.5,366.5C 266.368,366.915 268.535,365.915 270,363.5C 270.417,364.756 271.25,365.423 272.5,365.5C 276.134,365.499 279.801,364.999 283.5,364C 282.273,362.413 282.606,361.079 284.5,360C 289.863,358.657 294.196,355.824 297.5,351.5C 298.086,351.709 298.586,352.043 299,352.5C 301.703,350.072 302.537,347.238 301.5,344C 304.393,341.535 307.06,338.869 309.5,336C 309.05,334.715 308.383,333.548 307.5,332.5C 310.851,327.805 314.184,323.138 317.5,318.5C 318.281,319.737 319.281,320.737 320.5,321.5C 321.734,319.602 321.401,317.935 319.5,316.5C 320.991,315.756 322.491,315.09 324,314.5C 323.649,316.886 323.815,319.219 324.5,321.5C 326.401,318.267 328.567,315.267 331,312.5C 332.25,309.923 332.584,307.257 332,304.5C 330.355,304.693 328.521,304.86 326.5,305C 326.833,305.333 327.167,305.667 327.5,306C 326.322,306.967 324.989,307.467 323.5,307.5C 322.754,308.736 322.421,310.07 322.5,311.5C 321.5,311.5 320.5,311.5 319.5,311.5C 319.67,312.822 319.337,313.989 318.5,315C 316.527,315.495 314.527,315.662 312.5,315.5C 312.5,314.5 312.5,313.5 312.5,312.5C 308.998,312.389 305.998,313.556 303.5,316C 297.966,316.064 292.966,317.564 288.5,320.5C 285.348,320.288 282.015,320.288 278.5,320.5C 299.8,315.854 319.8,307.854 338.5,296.5 Z"/></g>
<g><path style="opacity:1" fill="#5bf1a4" d="M 163.5,303.5 C 170.02,305.669 176.354,308.003 182.5,310.5C 182.5,311.5 182.5,312.5 182.5,313.5C 183.833,313.5 185.167,313.5 186.5,313.5C 186.5,314.5 186.5,315.5 186.5,316.5C 188.971,316.233 190.638,317.233 191.5,319.5C 189.95,321.485 188.783,323.485 188,325.5C 189.333,324.167 190.667,324.167 192,325.5C 192.333,324.167 192.667,322.833 193,321.5C 193.5,322.667 194.333,323.5 195.5,324C 193.503,325.153 193.17,326.653 194.5,328.5C 195.251,327.624 195.751,326.624 196,325.5C 196.333,325.833 196.667,326.167 197,326.5C 196.068,328.582 195.568,330.915 195.5,333.5C 191.5,333.5 189.5,335.5 189.5,339.5C 188.167,339.5 186.833,339.5 185.5,339.5C 185.762,338.022 185.429,336.689 184.5,335.5C 183.23,336.562 182.063,337.562 181,338.5C 180.092,336.561 178.592,335.561 176.5,335.5C 176.5,333.5 176.5,331.5 176.5,329.5C 175.167,329.5 173.833,329.5 172.5,329.5C 172.377,326.626 171.377,324.126 169.5,322C 172.051,320.484 171.718,319.651 168.5,319.5C 166.83,314.134 165.164,308.8 163.5,303.5 Z"/></g>
<g><path style="opacity:1" fill="#1bdbde" d="M 363.5,338.5 C 362.167,338.5 360.833,338.5 359.5,338.5C 360.634,334.14 362.301,329.973 364.5,326C 374.863,324.14 384.53,320.64 393.5,315.5C 398.462,313.536 402.129,310.202 404.5,305.5C 406.785,304.043 408.618,302.043 410,299.5C 423.374,272.4 415.208,260.733 385.5,264.5C 382.833,264.5 380.167,264.5 377.5,264.5C 377.5,261.167 377.5,257.833 377.5,254.5C 387.658,253.341 397.992,253.175 408.5,254C 417.237,256.404 423.071,261.904 426,270.5C 428.298,298.41 416.798,318.244 391.5,330C 382.167,333.287 372.834,336.12 363.5,338.5 Z"/></g>
<g><path style="opacity:1" fill="#10c7db" d="M 310.5,278.5 C 314.765,281.36 314.432,283.36 309.5,284.5C 309.169,286.322 308.502,287.989 307.5,289.5C 306.426,290.885 305.093,292.051 303.5,293C 266.375,312.81 229.708,312.31 193.5,291.5C 196.157,291.162 198.49,291.829 200.5,293.5C 202.32,292.117 204.32,291.117 206.5,290.5C 212.042,292.903 217.709,294.903 223.5,296.5C 226.421,297.194 229.421,298.027 232.5,299C 243.341,299.825 254.008,299.659 264.5,298.5C 281.724,295.881 297.058,289.214 310.5,278.5 Z"/></g>
<g><path style="opacity:1" fill="#02363b" d="M 223.5,296.5 C 236.326,298.241 249.993,298.907 264.5,298.5C 254.008,299.659 243.341,299.825 232.5,299C 229.421,298.027 226.421,297.194 223.5,296.5 Z"/></g>
<g><path style="opacity:1" fill="#20e6da" d="M 139.5,314.5 C 139.5,313.833 139.5,313.167 139.5,312.5C 141.806,308.408 141.806,304.242 139.5,300C 140.214,295.846 139.881,291.679 138.5,287.5C 137.682,290.107 137.182,292.774 137,295.5C 136.501,291.514 136.334,287.514 136.5,283.5C 139.079,283.083 141.246,283.75 143,285.5C 143.952,295.998 145.785,306.331 148.5,316.5C 148.327,318.038 147.994,319.538 147.5,321C 149.051,323.384 150.385,325.884 151.5,328.5C 151.333,329.5 151.167,330.5 151,331.5C 149.899,329.606 148.566,328.939 147,329.5C 146.654,326.424 145.988,323.424 145,320.5C 143.129,319.003 142.129,317.003 142,314.5C 141.23,313.402 140.397,313.402 139.5,314.5 Z"/></g>
<g><path style="opacity:1" fill="#22b6be" d="M 361.5,296.5 C 360.173,292.53 360.173,288.53 361.5,284.5C 359.102,283.276 356.769,283.442 354.5,285C 353.13,291.048 352.297,297.214 352,303.5C 351.8,305.32 350.966,306.653 349.5,307.5C 351.156,298.915 352.156,290.249 352.5,281.5C 355.833,281.5 359.167,281.5 362.5,281.5C 362.821,286.695 362.487,291.695 361.5,296.5 Z"/></g>
<g><path style="opacity:1" fill="#1f8079" d="M 134.5,281.5 C 138.167,281.5 141.833,281.5 145.5,281.5C 145.5,284.833 145.5,288.167 145.5,291.5C 144.523,288.713 144.19,285.713 144.5,282.5C 141.5,282.5 138.5,282.5 135.5,282.5C 135.5,285.167 135.5,287.833 135.5,290.5C 134.523,287.713 134.19,284.713 134.5,281.5 Z"/></g>
<g><path style="opacity:1" fill="#056165" d="M 377.5,254.5 C 377.5,257.833 377.5,261.167 377.5,264.5C 380.167,264.5 382.833,264.5 385.5,264.5C 382.713,265.477 379.713,265.81 376.5,265.5C 376.185,261.629 376.518,257.962 377.5,254.5 Z"/></g>
<g><path style="opacity:1" fill="#052a2c" d="M 265.5,382.5 C 257.395,384.176 249.062,384.843 240.5,384.5C 236.25,383.728 231.917,383.228 227.5,383C 223.941,382.148 220.607,380.981 217.5,379.5C 218.416,379.018 219.416,378.685 220.5,378.5C 235.236,382.224 250.236,383.557 265.5,382.5 Z"/></g>
<g><path style="opacity:0.392" fill="#828a85" d="M 154.5,380.5 C 156.027,380.427 157.027,381.094 157.5,382.5C 155.973,382.573 154.973,381.906 154.5,380.5 Z"/></g>
<g><path style="opacity:1" fill="#1cd5d5" d="M 145.5,291.5 C 145.5,293.167 145.5,294.833 145.5,296.5C 153.241,338.556 177.241,366.223 217.5,379.5C 220.607,380.981 223.941,382.148 227.5,383C 231.917,383.228 236.25,383.728 240.5,384.5C 247.511,385.104 254.511,386.104 261.5,387.5C 259.675,392.167 256.842,396.167 253,399.5C 247.129,399.355 241.129,399.355 235,399.5C 231.005,398.103 230.838,396.77 234.5,395.5C 235.248,393.668 236.248,392.001 237.5,390.5C 236.044,385.272 232.711,383.439 227.5,385C 229.878,385.511 232.212,386.178 234.5,387C 234.042,389.398 232.708,391.064 230.5,392C 231.337,393.011 231.67,394.178 231.5,395.5C 230.022,395.238 228.689,395.571 227.5,396.5C 228.685,397.853 230.019,399.02 231.5,400C 228.497,401.31 225.497,401.476 222.5,400.5C 223.872,398.38 223.205,397.38 220.5,397.5C 220.5,396.5 220.5,395.5 220.5,394.5C 218.473,394.338 216.473,394.505 214.5,395C 214.043,395.414 213.709,395.914 213.5,396.5C 218.833,397.5 218.833,398.5 213.5,399.5C 211.517,398.53 209.517,397.53 207.5,396.5C 209.184,395.85 210.517,394.85 211.5,393.5C 216.214,393.827 220.88,393.493 225.5,392.5C 225.376,391.893 225.043,391.56 224.5,391.5C 181.913,381.58 153.58,355.914 139.5,314.5C 140.397,313.402 141.23,313.402 142,314.5C 142.129,317.003 143.129,319.003 145,320.5C 145.988,323.424 146.654,326.424 147,329.5C 148.566,328.939 149.899,329.606 151,331.5C 151.167,330.5 151.333,329.5 151.5,328.5C 150.385,325.884 149.051,323.384 147.5,321C 147.994,319.538 148.327,318.038 148.5,316.5C 145.785,306.331 143.952,295.998 143,285.5C 141.246,283.75 139.079,283.083 136.5,283.5C 136.334,287.514 136.501,291.514 137,295.5C 137.182,292.774 137.682,290.107 138.5,287.5C 139.881,291.679 140.214,295.846 139.5,300C 141.806,304.242 141.806,308.408 139.5,312.5C 137.093,305.393 135.76,298.06 135.5,290.5C 135.5,287.833 135.5,285.167 135.5,282.5C 138.5,282.5 141.5,282.5 144.5,282.5C 144.19,285.713 144.523,288.713 145.5,291.5 Z"/></g>
<g><path style="opacity:0.255" fill="#9fa3a3" d="M 341.5,382.5 C 342.833,383.5 344.167,384.5 345.5,385.5C 344.07,385.579 342.736,385.246 341.5,384.5C 340.227,383.743 340.227,383.077 341.5,382.5 Z"/></g>
<g><path style="opacity:0.004" fill="#fefffe" d="M 483.5,385.5 C 484.833,386.167 484.833,386.167 483.5,385.5 Z"/></g>
<g><path style="opacity:0.49" fill="#7d7f80" d="M 148.5,387.5 C 148.027,388.906 147.027,389.573 145.5,389.5C 145.973,388.094 146.973,387.427 148.5,387.5 Z"/></g>
<g><path style="opacity:1" fill="#17ccd6" d="M 307.5,377.5 C 296.942,383.912 285.608,388.579 273.5,391.5C 272.957,391.56 272.624,391.893 272.5,392.5C 282.812,393.499 293.145,393.832 303.5,393.5C 304.978,393.238 306.311,393.571 307.5,394.5C 299.475,399.144 290.808,401.977 281.5,403C 258.833,403.667 236.167,403.667 213.5,403C 205.258,401.865 197.591,399.365 190.5,395.5C 190.918,394.778 191.584,394.278 192.5,394C 198.825,393.5 205.158,393.334 211.5,393.5C 210.517,394.85 209.184,395.85 207.5,396.5C 209.517,397.53 211.517,398.53 213.5,399.5C 218.833,398.5 218.833,397.5 213.5,396.5C 213.709,395.914 214.043,395.414 214.5,395C 216.473,394.505 218.473,394.338 220.5,394.5C 220.5,395.5 220.5,396.5 220.5,397.5C 223.205,397.38 223.872,398.38 222.5,400.5C 225.497,401.476 228.497,401.31 231.5,400C 230.019,399.02 228.685,397.853 227.5,396.5C 228.689,395.571 230.022,395.238 231.5,395.5C 231.67,394.178 231.337,393.011 230.5,392C 232.708,391.064 234.042,389.398 234.5,387C 232.212,386.178 229.878,385.511 227.5,385C 232.711,383.439 236.044,385.272 237.5,390.5C 236.248,392.001 235.248,393.668 234.5,395.5C 230.838,396.77 231.005,398.103 235,399.5C 241.129,399.355 247.129,399.355 253,399.5C 256.842,396.167 259.675,392.167 261.5,387.5C 254.511,386.104 247.511,385.104 240.5,384.5C 249.062,384.843 257.395,384.176 265.5,382.5C 272.126,382.342 278.46,381.009 284.5,378.5C 285.398,379.158 286.398,379.824 287.5,380.5C 285.5,381.333 283.5,382.167 281.5,383C 283.402,383.199 284.902,384.033 286,385.5C 287.102,383.619 288.435,381.952 290,380.5C 291.301,380.96 292.634,381.294 294,381.5C 298.318,379.573 302.818,378.24 307.5,377.5 Z"/></g>
<g><path style="opacity:1" fill="#03423f" d="M 224.5,391.5 C 225.043,391.56 225.376,391.893 225.5,392.5C 220.88,393.493 216.214,393.827 211.5,393.5C 205.158,393.334 198.825,393.5 192.5,394C 191.584,394.278 190.918,394.778 190.5,395.5C 189.308,394.434 189.641,393.601 191.5,393C 202.674,392.83 213.674,392.33 224.5,391.5 Z"/></g>
<g><path style="opacity:1" fill="#014046" d="M 273.5,391.5 C 283.5,392.167 293.5,392.833 303.5,393.5C 293.145,393.832 282.812,393.499 272.5,392.5C 272.624,391.893 272.957,391.56 273.5,391.5 Z"/></g>
<g><path style="opacity:0.506" fill="#5c6260" d="M 352.5,390.5 C 353.765,391.514 354.431,393.014 354.5,395C 354.492,396.707 354.158,398.207 353.5,399.5C 353.736,396.391 353.403,393.391 352.5,390.5 Z"/></g>
<g><path style="opacity:0.004" fill="#fefffe" d="M 128.5,397.5 C 129.833,398.167 129.833,398.167 128.5,397.5 Z"/></g>
<g><path style="opacity:0.004" fill="#fefffe" d="M 391.5,398.5 C 392.833,399.167 392.833,399.167 391.5,398.5 Z"/></g>
<g><path style="opacity:0.224" fill="#909492" d="M 343.5,407.5 C 341.819,409.008 339.819,410.008 337.5,410.5C 338.911,408.461 340.911,407.461 343.5,407.5 Z"/></g>
<g><path style="opacity:0.004" fill="#fefffe" d="M 360.5,408.5 C 361.833,409.167 361.833,409.167 360.5,408.5 Z"/></g>
<g><path style="opacity:0.055" fill="#8f9191" d="M 164.5,411.5 C 167.152,411.41 169.485,412.076 171.5,413.5C 168.848,413.59 166.515,412.924 164.5,411.5 Z"/></g>
<g><path style="opacity:0.004" fill="#fefffe" d="M 8.5,414.5 C 9.83333,415.167 9.83333,415.167 8.5,414.5 Z"/></g>
<g><path style="opacity:0.004" fill="#fefffe" d="M 400.5,414.5 C 401.833,415.167 401.833,415.167 400.5,414.5 Z"/></g>
<g><path style="opacity:0.824" fill="#5f605f" d="M 180.5,415.5 C 183.518,415.335 186.518,415.502 189.5,416C 190.416,416.278 191.082,416.778 191.5,417.5C 187.575,417.57 183.909,416.903 180.5,415.5 Z"/></g>
<g><path style="opacity:0.082" fill="#9fa19f" d="M 318.5,415.5 C 315.091,416.903 311.425,417.57 307.5,417.5C 310.909,416.097 314.575,415.43 318.5,415.5 Z"/></g>
<g><path style="opacity:0.004" fill="#fefffe" d="M 85.5,421.5 C 86.8333,422.167 86.8333,422.167 85.5,421.5 Z"/></g>
<g><path style="opacity:0.004" fill="#fefffe" d="M 218.5,422.5 C 219.833,423.167 219.833,423.167 218.5,422.5 Z"/></g>
<g><path style="opacity:0.004" fill="#fefffe" d="M 432.5,423.5 C 433.833,424.167 433.833,424.167 432.5,423.5 Z"/></g>
<g><path style="opacity:0.004" fill="#fefffe" d="M 103.5,438.5 C 104.833,439.167 104.833,439.167 103.5,438.5 Z"/></g>
<g><path style="opacity:0.004" fill="#fefffe" d="M 223.5,451.5 C 224.833,452.167 224.833,452.167 223.5,451.5 Z"/></g>
<g><path style="opacity:0.004" fill="#fefffe" d="M 74.5,454.5 C 75.8333,455.167 75.8333,455.167 74.5,454.5 Z"/></g>
<g><path style="opacity:0.004" fill="#fefffe" d="M 344.5,460.5 C 345.833,461.167 345.833,461.167 344.5,460.5 Z"/></g>
<g><path style="opacity:0.004" fill="#fefffe" d="M 458.5,461.5 C 459.833,462.167 459.833,462.167 458.5,461.5 Z"/></g>
<g><path style="opacity:0.004" fill="#fefffe" d="M 317.5,474.5 C 318.833,475.167 318.833,475.167 317.5,474.5 Z"/></g>
<g><path style="opacity:0.004" fill="#fefffe" d="M 296.5,495.5 C 297.833,496.167 297.833,496.167 296.5,495.5 Z"/></g>
<g><path style="opacity:0.004" fill="#fefffe" d="M 396.5,497.5 C 397.833,498.167 397.833,498.167 396.5,497.5 Z"/></g>
</svg>
